<svg width="23" height="28" viewBox="0 0 23 28" fill="none" xmlns="http://www.w3.org/2000/svg">
<path d="M18.8443 14.9854C18.858 13.9311 19.1404 12.8974 19.6651 11.9804C20.1898 11.0634 20.9398 10.293 21.8454 9.74078C21.2701 8.92585 20.5112 8.2552 19.6289 7.78209C18.7466 7.30898 17.7652 7.04644 16.7627 7.01533C14.6242 6.79269 12.551 8.28457 11.4612 8.28457C10.3504 8.28457 8.67257 7.03743 6.86582 7.0743C5.69716 7.11175 4.55822 7.44883 3.55995 8.05268C2.56168 8.65654 1.73814 9.50658 1.16957 10.52C-1.29337 14.7495 0.54376 20.9655 2.90305 24.3843C4.08346 26.0584 5.46301 27.9284 7.26813 27.8621C9.03454 27.7895 9.69427 26.7449 11.8265 26.7449C13.9389 26.7449 14.5579 27.8621 16.3996 27.82C18.2951 27.7894 19.4893 26.1384 20.6283 24.4485C21.4764 23.2556 22.129 21.9372 22.562 20.5422C21.4608 20.0802 20.521 19.307 19.8599 18.3188C19.1988 17.3307 18.8456 16.1713 18.8443 14.9854Z" fill="#103351"/>
<path d="M15.3652 4.76705C16.3987 3.53649 16.9078 1.95481 16.7845 0.35791C15.2056 0.522397 13.7471 1.27088 12.6997 2.45423C12.1876 3.03233 11.7953 3.70487 11.5454 4.43341C11.2955 5.16195 11.1928 5.9322 11.2432 6.70014C12.0329 6.7082 12.8142 6.53842 13.5282 6.20358C14.2422 5.86874 14.8703 5.37756 15.3652 4.76705Z" fill="#103351"/>
</svg>
