<svg width="30" height="50" viewBox="0 0 30 50" fill="none" xmlns="http://www.w3.org/2000/svg">
<path d="M15 0C7.00498 0 0.5 6.45274 0.5 14.3842V35.6164C0.5 43.5473 7.00498 50 15 50C22.995 50 29.5 43.5473 29.5 35.6164V14.3842C29.5 6.45274 22.995 0 15 0ZM27.4286 35.6164C27.4286 42.4144 21.853 47.9452 15 47.9452C8.14702 47.9452 2.57143 42.4144 2.57143 35.6164V14.3842C2.57143 7.58562 8.14702 2.05479 15 2.05479C21.853 2.05479 27.4286 7.58562 27.4286 14.3842V35.6164ZM15 8.67603C13.7606 8.67603 12.756 9.6726 12.756 10.9021V18.3219C12.756 19.5514 13.7606 20.5479 15 20.5479C16.2394 20.5479 17.244 19.5514 17.244 18.3219V10.9021C17.244 9.6726 16.2394 8.67603 15 8.67603Z" fill="white"/>
</svg>
