<svg width="794" height="130" viewBox="0 0 794 130" fill="none" xmlns="http://www.w3.org/2000/svg">
<path d="M496.555 129.32H475.984C471.75 129.32 467.764 128.511 464.028 126.885C460.284 125.273 457.039 123.051 454.306 120.256C451.559 117.447 449.38 114.181 447.761 110.438C446.142 106.694 445.332 102.709 445.332 98.4744V21.3873H467.764V47.0576H480.848L486.46 69.4967H467.764V98.4744C467.764 100.841 468.574 102.834 470.193 104.453C471.812 106.072 473.749 106.881 475.984 106.881H490.944L496.555 129.32Z" fill="white" fill-opacity="0.6"/>
<path d="M538.325 35.8415C542.747 33.9734 547.756 33.0393 553.375 33.0393V55.4645C545.895 55.4645 539.536 58.0869 534.305 63.3247C529.067 68.8117 526.452 75.1704 526.452 82.401V129.32H504.02V82.401V35.6547H526.452V42.9476C529.939 40.083 533.89 37.7167 538.325 35.8415Z" fill="white" fill-opacity="0.6"/>
<path d="M563.67 32.5894H586.102V129.32H563.67V32.5894ZM563.67 -9.15527e-05H586.102C586.102 12.3922 576.062 22.439 563.67 22.439V-9.15527e-05Z" fill="white" fill-opacity="0.6"/>
<path d="M646.287 33.2261C652.397 33.2261 657.946 34.3746 662.928 36.6857C667.91 38.9898 672.179 42.1657 675.736 46.2134C679.292 50.275 682.025 54.9732 683.956 60.3356C685.893 65.6911 686.855 71.4271 686.855 77.5299V129.32L664.423 129.32V77.5299C664.423 71.2957 662.243 66.127 657.877 62.017C653.642 57.7755 648.529 55.6651 642.551 55.6651C636.441 55.6651 631.266 57.7755 627.031 62.017C622.79 66.2515 620.672 71.4271 620.672 77.5299V129.32H598.24V32.6933H620.672V42.9476C624.035 40.083 627.841 37.7443 632.075 35.9315C636.324 34.1325 641.056 33.2261 646.287 33.2261Z" fill="white" fill-opacity="0.6"/>
<path d="M639.686 19.3203L620.555 19.3203V0.188547L639.686 0.188547V19.3203Z" fill="white" fill-opacity="0.6"/>
<path d="M415.911 66.8691C413.289 65.0839 410.646 63.541 407.975 62.2263C405.29 60.9186 402.82 59.7907 400.558 58.8359C398.302 57.8879 396.344 57.1753 394.676 56.6978C393.002 56.2204 391.874 55.8675 391.279 55.6254L389.141 55.0926C386.996 54.4906 384.678 53.8402 382.18 53.1275C379.682 52.4148 377.302 51.46 375.046 50.2768C372.299 48.8445 370.168 47.2392 368.618 45.4541C366.473 43.1915 365.408 40.4584 365.408 37.241C365.408 32.01 368.016 27.7893 373.261 24.5719C375.046 23.6239 377.122 22.849 379.502 22.2539C381.883 21.6589 384.263 21.3613 386.643 21.3613C404.564 21.3613 413.766 21.389 421.924 21.4582V2.23659C400.447 2.01517 386.768 1.91138 383.965 1.91138C379.322 1.91138 374.597 2.56178 369.781 3.86952C364.958 5.18417 360.585 7.34989 356.662 10.3874C352.732 13.4181 349.549 17.3413 347.113 22.164C344.671 26.9797 343.453 32.9026 343.453 39.9187C343.453 50.512 348.871 59.4309 359.693 66.6892C364.335 69.789 369.006 72.2246 373.704 74.0097C378.402 75.7949 382.007 77.0404 384.505 77.753C384.975 77.9952 385.328 78.1128 385.57 78.1128C385.93 78.355 386.345 78.5003 386.823 78.5557C387.293 78.618 387.826 78.7702 388.421 78.9985C390.331 79.6005 392.469 80.2578 394.849 80.9705C397.236 81.6832 399.492 82.6311 401.637 83.8212C404.245 85.0113 406.39 86.5612 408.058 88.464C410.203 90.8442 411.269 93.522 411.269 96.4903C411.269 101.375 409.248 105.298 405.2 108.274C403.298 109.582 401.063 110.619 398.509 111.394C395.949 112.169 393.126 112.557 390.033 112.557C389.764 112.557 389.459 112.543 389.168 112.536V131.688C390.352 131.737 391.5 131.834 392.704 131.834C398.897 131.834 404.495 130.934 409.483 129.149C414.479 127.371 418.734 124.838 422.242 121.566C425.757 118.3 428.456 114.314 430.366 109.609C432.268 104.911 433.223 99.6455 433.223 93.8195C433.223 83.4614 427.453 74.4872 415.911 66.8691Z" fill="white" fill-opacity="0.6"/>
<path d="M362.002 121.699H368.437V128.126H362.002V121.699ZM386.904 112.537H384.621H361.746V121.664H352.509V112.392H343.271V121.851H352.467V126.238V131.787H384.621V131.759H389.16V131.69V112.537C388.475 112.517 387.721 112.607 386.904 112.537Z" fill="white" fill-opacity="0.6"/>
<path d="M745.871 164.61H738.398V157.13H745.871V164.61ZM771.569 32.8328V43.1563C767.832 40.2917 763.466 37.8976 758.484 35.9603C753.503 34.0298 747.76 33.068 741.283 33.068C734.551 33.068 728.351 34.3413 722.677 36.9014C717.011 39.4546 712.153 42.9695 708.099 47.4532C704.051 51.9507 700.896 57.1816 698.661 63.1667C696.419 69.1449 695.291 75.5659 695.291 82.4229C695.291 89.2729 696.599 95.6941 699.221 101.679C701.844 107.657 705.386 112.895 709.877 117.379C714.36 121.862 719.591 125.391 725.577 127.945C731.493 130.463 737.768 131.736 744.411 131.764V109.318C737.284 109.263 731.001 106.661 725.577 101.492C720.353 96.2545 717.73 89.9025 717.73 82.4229C717.73 75.1923 720.353 68.8336 725.577 63.3536C731.057 58.1157 737.422 55.4932 744.646 55.4932C752.126 55.4932 758.484 58.1157 763.715 63.3536C768.946 68.8336 771.569 75.1923 771.569 82.4229V120.001C771.569 127.349 768.946 133.639 763.715 138.884C759.792 142.994 755.122 145.519 749.732 146.474H738.1V157.088H727.369V146.308H716.623V157.303H727.306V162.402V168.858H746.32C751.468 168.858 756.637 168.173 761.467 166.402C762.29 166.104 763.099 165.779 763.902 165.426C766.033 164.492 768.033 163.406 769.97 162.236C773.485 160.119 776.717 157.663 779.609 154.77C784.086 150.287 787.614 145.042 790.168 139.071C792.728 133.079 794.001 126.72 794.001 120.001V32.8328L771.569 32.8328Z" fill="white" fill-opacity="0.6"/>
<mask id="mask0_1_3675" style="mask-type:luminance" maskUnits="userSpaceOnUse" x="135" y="35" width="100" height="99">
<path d="M165.566 39.1617C159.581 41.7149 154.35 45.2368 149.86 49.7204C145.376 54.211 141.861 59.442 139.301 65.4202C136.741 71.4054 135.461 77.8264 135.461 84.6834C135.461 91.4088 136.741 97.7677 139.301 103.753C141.861 109.731 145.376 114.969 149.86 119.459C154.35 123.943 159.581 127.458 165.566 130.018C171.552 132.564 177.966 133.851 184.823 133.851C192.302 133.851 199.222 132.378 205.58 129.451C211.932 126.531 217.35 122.448 221.834 117.211L198.474 107.863C194.482 110.236 189.936 111.419 184.823 111.419C181.204 111.419 177.786 110.762 174.541 109.447C171.303 108.14 168.369 106.181 165.753 103.566C163.387 101.317 161.574 98.764 160.336 95.8994L209.31 95.8994H232.863C233.735 92.4122 234.178 88.6758 234.178 84.6834C234.178 77.8264 232.904 71.4054 230.351 65.4202C227.784 59.442 224.262 54.211 219.779 49.7204C215.288 45.2368 210.064 41.7149 204.079 39.1617C198.101 36.6085 191.68 35.3285 184.823 35.3285C177.966 35.3285 171.552 36.6085 165.566 39.1617ZM165.753 65.6139C171.233 60.376 177.592 57.7607 184.823 57.7607C192.302 57.7607 198.661 60.376 203.899 65.6139C206.258 67.9803 208.071 70.5958 209.31 73.4673L160.336 73.4673C161.574 70.5958 163.387 67.9803 165.753 65.6139Z" fill="white"/>
</mask>
<g mask="url(#mask0_1_3675)">
<rect x="130.934" y="32.7905" width="103.788" height="103.788" fill="white" fill-opacity="0.6"/>
</g>
<mask id="mask1_1_3675" style="mask-type:luminance" maskUnits="userSpaceOnUse" x="242" y="34" width="90" height="101">
<path d="M308.756 34.9105V89.9323C308.756 95.9175 306.638 101.024 302.404 105.265C298.169 109.507 292.994 111.624 286.891 111.624C280.899 111.624 275.792 109.507 271.558 105.265C267.199 100.899 265.012 95.7999 265.012 89.9323V34.9105H242.58L242.58 89.9323C242.58 96.042 243.549 101.771 245.479 107.133C247.403 112.489 250.15 117.173 253.706 121.152C257.256 125.144 261.518 128.292 266.514 130.597C271.496 132.901 277.045 134.056 283.148 134.056C288.378 134.056 293.118 133.15 297.353 131.344C301.587 129.531 305.393 127.199 308.756 124.335V131.441H331.188V34.9105H308.756Z" fill="white"/>
</mask>
<g mask="url(#mask1_1_3675)">
<rect x="241.631" y="32.8005" width="89.95" height="103.788" fill="white" fill-opacity="0.6"/>
</g>
<path d="M135.265 36.1501V7.6706L106.785 7.6706C108.335 22.6507 120.285 34.6002 135.265 36.1501Z" fill="white" fill-opacity="0.6"/>
<path d="M94.5571 83.0161V131.693L121.597 131.693L121.597 82.6009C121.597 41.3969 88.0807 7.8871 46.8905 7.8871H31.5645L31.5645 34.5123H46.0602C72.7961 34.5123 94.5571 56.2733 94.5571 83.0161Z" fill="white" fill-opacity="0.6"/>
<path d="M22.6536 118.151H13.4026L13.4026 108.899H22.6536L22.6536 118.151ZM27.8776 102.686L27.8914 37.6315H0.00696822L0.00696822 102.686H0L0 118.517H13.3472L13.3472 131.802H0L0 143.904H13.6171L13.6171 131.871H27.9191L27.9191 102.686H27.8776Z" fill="white" fill-opacity="0.6"/>
</svg>
