<svg width="88" height="88" viewBox="0 0 88 88" fill="none" xmlns="http://www.w3.org/2000/svg">
<path d="M57.9287 77H61.0225L54.3125 45.375H51.2187L54.5737 61.1875H33.4262L36.7812 45.375H33.6875L26.9912 77H30.085L33.0687 62.9062H54.9312L57.9287 77Z" fill="url(#paint0_linear_1_3139)"/>
<path d="M41.9788 11H46.0213C46.583 11.0108 47.118 11.2416 47.5114 11.6427C47.9048 12.0438 48.1251 12.5832 48.125 13.145V13.42H39.875V13.145C39.8749 12.5832 40.0952 12.0438 40.4886 11.6427C40.882 11.2416 41.417 11.0108 41.9788 11Z" fill="url(#paint1_linear_1_3139)"/>
<path d="M12.925 18.3975H75.0751V48.8125C75.0751 49.4288 74.8302 50.0198 74.3944 50.4556C73.9587 50.8914 73.3676 51.1362 72.7513 51.1362H15.235C14.6211 51.1326 14.0336 50.8862 13.6008 50.4508C13.168 50.0154 12.925 49.4264 12.925 48.8125V18.3975Z" fill="url(#paint2_linear_1_3139)"/>
<path d="M74.9238 12.7188H13.0763C11.9296 12.7188 11 13.6483 11 14.795V16.3212C11 17.4679 11.9296 18.3975 13.0763 18.3975H74.9238C76.0704 18.3975 77 17.4679 77 16.3212V14.795C77 13.6483 76.0704 12.7188 74.9238 12.7188Z" fill="url(#paint3_linear_1_3139)"/>
<path d="M75.0888 18.3975H12.925V20.13H75.0888V18.3975Z" fill="#95C126"/>
<path d="M31.625 36.5888V34.7738C31.6187 34.0613 31.4279 33.3626 31.0713 32.7457C30.7147 32.1288 30.2043 31.6148 29.59 31.2538C28.9629 30.8918 28.2516 30.7012 27.5275 30.7012C26.8034 30.7012 26.0921 30.8918 25.465 31.2538C24.8404 31.6079 24.3191 32.1189 23.9525 32.7363C23.586 33.3536 23.3869 34.0559 23.375 34.7738V36.5888C23.3768 37.2157 23.5427 37.8312 23.8564 38.374C24.17 38.9168 24.6203 39.3679 25.1625 39.6826C25.8569 40.0819 26.644 40.292 27.445 40.292C28.246 40.292 29.0331 40.0819 29.7275 39.6826C30.2902 39.3821 30.7626 38.937 31.0962 38.3932C31.4297 37.8495 31.6122 37.2266 31.625 36.5888Z" fill="url(#paint4_linear_1_3139)"/>
<path d="M36.3824 53.2264H18.6174V50.2976C18.6174 47.9406 19.5528 45.6799 21.2182 44.0119C22.8836 42.3439 25.1429 41.405 27.4999 41.4014C29.857 41.405 32.1162 42.3439 33.7816 44.0119C35.447 45.6799 36.3824 47.9406 36.3824 50.2976V53.2264Z" fill="url(#paint5_linear_1_3139)"/>
<path d="M42.4188 53.2263H12.5812C11.7079 53.2263 11 53.9343 11 54.8076V56.1138C11 56.9871 11.7079 57.6951 12.5812 57.6951H42.4188C43.292 57.6951 44 56.9871 44 56.1138V54.8076C44 53.9343 43.292 53.2263 42.4188 53.2263Z" fill="url(#paint6_linear_1_3139)"/>
<path d="M42.1299 57.6951H12.8562V77.0001H42.1299V57.6951Z" fill="url(#paint7_linear_1_3139)"/>
<path d="M59.4138 26.5376L61.0501 28.1601L57.5026 31.7076C57.4413 31.7691 57.3684 31.8179 57.2882 31.8513C57.208 31.8846 57.1219 31.9017 57.0351 31.9017C56.9482 31.9017 56.8622 31.8846 56.782 31.8513C56.7018 31.8179 56.6289 31.7691 56.5676 31.7076L53.8863 29.0126L53.8038 28.9438L53.3638 28.5038C53.1075 28.2398 52.8008 28.0299 52.4619 27.8866C52.1229 27.7432 51.7587 27.6694 51.3907 27.6694C51.0227 27.6694 50.6585 27.7432 50.3195 27.8866C49.9806 28.0299 49.6739 28.2398 49.4176 28.5038L46.2688 31.6251L43.3263 34.5538C42.6594 35.1927 42.2513 36.0551 42.1803 36.9759C42.1093 37.8968 42.3802 38.8115 42.9413 39.5451C43.2594 39.9396 43.6572 40.2625 44.1086 40.4928C44.5601 40.723 45.055 40.8555 45.5611 40.8814C46.0672 40.9074 46.5731 40.8263 47.0457 40.6434C47.5183 40.4605 47.947 40.18 48.3038 39.8201L50.8751 37.3038C50.9428 37.2361 51.0231 37.1823 51.1116 37.1456C51.2001 37.109 51.2949 37.0901 51.3907 37.0901C51.4865 37.0901 51.5813 37.109 51.6698 37.1456C51.7583 37.1823 51.8387 37.2361 51.9063 37.3038L54.5738 39.9851C55.2234 40.6333 56.1036 40.9974 57.0213 40.9974C57.939 40.9974 58.8192 40.6333 59.4688 39.9851L62.2188 37.3038L66.2338 33.2888L67.8563 34.9113V26.5376H59.4138Z" fill="url(#paint8_linear_1_3139)"/>
<defs>
<linearGradient id="paint0_linear_1_3139" x1="44.0068" y1="45.375" x2="44.0068" y2="77" gradientUnits="userSpaceOnUse">
<stop stop-color="#2870AE"/>
<stop offset="1" stop-color="#1A75C5"/>
</linearGradient>
<linearGradient id="paint1_linear_1_3139" x1="44" y1="11" x2="44" y2="13.42" gradientUnits="userSpaceOnUse">
<stop stop-color="#2870AE"/>
<stop offset="1" stop-color="#1A75C5"/>
</linearGradient>
<linearGradient id="paint2_linear_1_3139" x1="44.0001" y1="18.3975" x2="44.0001" y2="51.1362" gradientUnits="userSpaceOnUse">
<stop stop-color="#9BCB52"/>
<stop offset="1" stop-color="#CEDD45"/>
</linearGradient>
<linearGradient id="paint3_linear_1_3139" x1="44" y1="12.7188" x2="44" y2="18.3975" gradientUnits="userSpaceOnUse">
<stop stop-color="#9BCB52"/>
<stop offset="1" stop-color="#CEDD45"/>
</linearGradient>
<linearGradient id="paint4_linear_1_3139" x1="27.5" y1="30.7012" x2="27.5" y2="40.292" gradientUnits="userSpaceOnUse">
<stop stop-color="#44A8FF"/>
<stop offset="1" stop-color="#1A75C5"/>
</linearGradient>
<linearGradient id="paint5_linear_1_3139" x1="27.4999" y1="41.4014" x2="27.4999" y2="53.2264" gradientUnits="userSpaceOnUse">
<stop stop-color="#44A8FF"/>
<stop offset="1" stop-color="#1A75C5"/>
</linearGradient>
<linearGradient id="paint6_linear_1_3139" x1="27.5" y1="53.2263" x2="27.5" y2="57.6951" gradientUnits="userSpaceOnUse">
<stop stop-color="#9BCB52"/>
<stop offset="1" stop-color="#CEDD45"/>
</linearGradient>
<linearGradient id="paint7_linear_1_3139" x1="27.4931" y1="57.6951" x2="27.4931" y2="77.0001" gradientUnits="userSpaceOnUse">
<stop stop-color="#9BCB52"/>
<stop offset="1" stop-color="#CEDD45"/>
</linearGradient>
<linearGradient id="paint8_linear_1_3139" x1="55.0128" y1="26.5376" x2="55.0128" y2="40.9974" gradientUnits="userSpaceOnUse">
<stop stop-color="#44A8FF"/>
<stop offset="1" stop-color="#1A75C5"/>
</linearGradient>
</defs>
</svg>
