<svg width="15" height="16" viewBox="0 0 15 16" fill="none" xmlns="http://www.w3.org/2000/svg">
<path fill-rule="evenodd" clip-rule="evenodd" d="M0.282298 1.04031C0.103355 1.22691 0 1.51204 0 1.88525V15.1222C0 15.4954 0.103355 15.7806 0.288469 15.9597L0.33629 16L8 8.5836V8.41789L0.330119 1L0.282298 1.04031Z" fill="url(#paint0_linear_1_11)"/>
<path fill-rule="evenodd" clip-rule="evenodd" d="M10.8473 11L8 8.58455V8.41545L10.8473 6L10.9091 6.03207L14.277 7.65598C15.241 8.11662 15.241 8.87755 14.277 9.34402L10.9091 10.9679L10.8473 11Z" fill="url(#paint1_linear_1_11)"/>
<path fill-rule="evenodd" clip-rule="evenodd" d="M11 10.6257L8.21713 8L0 15.7531C0.300807 16.0571 0.80544 16.0912 1.36925 15.795L11 10.6257Z" fill="url(#paint2_linear_1_11)"/>
<path fill-rule="evenodd" clip-rule="evenodd" d="M11 5.37275L1.36925 0.208248C0.80544 -0.0959108 0.299163 -0.0540111 0 0.250148L8.21713 8L11 5.37275Z" fill="url(#paint3_linear_1_11)"/>
<path opacity="0.2" fill-rule="evenodd" clip-rule="evenodd" d="M10.9343 11L1.36925 15.7235C0.835027 15.9907 0.358338 15.9721 0.0509565 15.7292L0 15.7735L0.0509565 15.8121C0.358338 16.0535 0.835027 16.0735 1.36925 15.8064L11 11.0514L10.9343 11Z" fill="black"/>
<path opacity="0.12" fill-rule="evenodd" clip-rule="evenodd" d="M14.3143 8.92321L11 10.9362L11.0596 11L14.306 9.02599C14.7714 8.74247 15 8.37035 15 8C14.9718 8.34022 14.735 8.66273 14.3143 8.92321Z" fill="black"/>
<path opacity="0.25" fill-rule="evenodd" clip-rule="evenodd" d="M1.64686 0.300864L14.3208 7.19177C14.7325 7.41361 14.9643 7.7037 15 8C15 7.67578 14.7763 7.35 14.3208 7.10179L1.64686 0.210888C0.737519 -0.287082 0 0.128669 0 1.12306V1.21303C0 0.217093 0.737519 -0.190901 1.64686 0.300864Z" fill="#103351"/>
<defs>
<linearGradient id="paint0_linear_1_11" x1="7.31258" y1="1.74244" x2="-4.90843" y2="5.10733" gradientUnits="userSpaceOnUse">
<stop stop-color="#00A0FF"/>
<stop offset="0.00657" stop-color="#00A1FF"/>
<stop offset="0.2601" stop-color="#00BEFF"/>
<stop offset="0.5122" stop-color="#00D2FF"/>
<stop offset="0.7604" stop-color="#00DFFF"/>
<stop offset="1" stop-color="#00E3FF"/>
</linearGradient>
<linearGradient id="paint1_linear_1_11" x1="15.5341" y1="8.50002" x2="-1.13862" y2="8.50002" gradientUnits="userSpaceOnUse">
<stop stop-color="#FFE000"/>
<stop offset="0.4087" stop-color="#FFBD00"/>
<stop offset="0.7754" stop-color="#FFA500"/>
<stop offset="1" stop-color="#FF9C00"/>
</linearGradient>
<linearGradient id="paint2_linear_1_11" x1="9.48678" y1="9.42877" x2="-0.137447" y2="26.5967" gradientUnits="userSpaceOnUse">
<stop stop-color="#FF3A44"/>
<stop offset="1" stop-color="#C31162"/>
</linearGradient>
<linearGradient id="paint3_linear_1_11" x1="-2.06916" y1="-4.33444" x2="2.22821" y2="3.33499" gradientUnits="userSpaceOnUse">
<stop stop-color="#32A071"/>
<stop offset="0.0685" stop-color="#2DA771"/>
<stop offset="0.4762" stop-color="#15CF74"/>
<stop offset="0.8009" stop-color="#06E775"/>
<stop offset="1" stop-color="#00F076"/>
</linearGradient>
</defs>
</svg>
