<svg width="99" height="99" viewBox="0 0 99 99" fill="none" xmlns="http://www.w3.org/2000/svg">
<rect width="99" height="99" rx="10" fill="white" fill-opacity="0.51"/>
<path d="M75.6576 21.7491C65.5565 20.6509 56.9404 17.4798 51.5728 13.1021C50.985 12.6301 50.2538 12.3728 49.4999 12.3728C48.7461 12.3728 48.0149 12.6301 47.4271 13.1021C42.0595 17.4798 33.5053 20.6509 23.3423 21.7491C22.4984 21.8226 21.7126 22.2096 21.1399 22.8339C20.5672 23.4581 20.2492 24.2742 20.2485 25.1213V58.1935C20.2543 61.5226 21.1621 64.788 22.8753 67.6425C24.5885 70.4969 27.0432 72.8338 29.9784 74.4048C33.4922 76.3125 36.8815 78.4411 40.1259 80.7779L47.1642 85.8671C47.8411 86.3509 48.6524 86.6109 49.4845 86.6109C50.3165 86.6109 51.1278 86.3509 51.8048 85.8671L58.8431 80.7779C62.0874 78.4411 65.4767 76.3125 68.9906 74.4048C71.9142 72.8256 74.3564 70.4852 76.0583 67.6313C77.7603 64.7774 78.6588 61.5164 78.6585 58.1935V25.1213C78.6602 24.2887 78.3551 23.4846 77.8016 22.8626C77.248 22.2406 76.4848 21.8442 75.6576 21.7491Z" fill="url(#paint0_linear_1_3249)"/>
<path d="M31.8037 64.644C31.8194 67.7415 32.5743 70.7905 34.0057 73.5374C35.437 76.2844 37.5034 78.65 40.0331 80.4376H40.1259L47.1642 85.5268C47.8412 86.0106 48.6524 86.2706 49.4845 86.2706C50.3166 86.2706 51.1278 86.0106 51.8048 85.5268L58.874 80.4376C61.4007 78.6507 63.4651 76.2873 64.8962 73.5434C66.3273 70.7995 67.084 67.7541 67.1034 64.6595V51.9751H31.8037V64.644Z" fill="url(#paint1_linear_1_3249)"/>
<path d="M52.7485 32.2678C52.7399 31.7789 52.621 31.2983 52.4008 30.8618C52.1805 30.4252 51.8646 30.044 51.4764 29.7466C51.0883 29.4492 50.6381 29.2433 50.1593 29.1441C49.6805 29.045 49.1855 29.0552 48.7112 29.174C48.0985 29.323 47.5428 29.6479 47.1124 30.1087C46.682 30.5695 46.3958 31.1461 46.289 31.7676C46.1821 32.389 46.2593 33.0281 46.511 33.6062C46.7627 34.1843 47.178 34.6761 47.7057 35.0212C47.9602 35.193 48.17 35.4229 48.318 35.6919C48.4659 35.9609 48.5477 36.2612 48.5565 36.5681V38.4243H50.4437V36.5681C50.4426 36.2627 50.5168 35.9618 50.6598 35.6919C50.8028 35.4221 51.0102 35.1917 51.2635 35.0212C51.7238 34.7254 52.1015 34.3177 52.3613 33.8361C52.621 33.3545 52.7542 32.8149 52.7485 32.2678Z" fill="white"/>
<path d="M43.9622 36.9395H55.0224C57.4059 36.9395 59.6919 37.8863 61.3774 39.5718C63.0628 41.2572 64.0097 43.5432 64.0097 45.9268V59.8487C64.0097 60.5637 63.8689 61.2718 63.5952 61.9324C63.3216 62.593 62.9205 63.1933 62.4149 63.6989C61.9093 64.2045 61.309 64.6056 60.6484 64.8792C59.9878 65.1528 59.2797 65.2937 58.5647 65.2937H40.4199C38.9757 65.2937 37.5908 64.72 36.5697 63.6989C35.5485 62.6777 34.9749 61.2928 34.9749 59.8487V45.9268C34.9749 43.5432 35.9217 41.2572 37.6072 39.5718C39.2926 37.8863 41.5786 36.9395 43.9622 36.9395Z" fill="#DFE8F4"/>
<path d="M34.9903 57.6676C34.5725 57.6697 34.1585 57.5891 33.772 57.4307C33.3855 57.2722 33.0341 57.039 32.738 56.7443C32.4419 56.4496 32.2069 56.0994 32.0466 55.7136C31.8862 55.3279 31.8037 54.9143 31.8037 54.4965V50.0879C31.8037 49.2428 32.1394 48.4323 32.737 47.8347C33.3346 47.2371 34.1451 46.9014 34.9903 46.9014V57.6676Z" fill="#CCD8E5"/>
<path d="M64.0098 57.6676C64.4275 57.6697 64.8415 57.5891 65.228 57.4307C65.6146 57.2722 65.966 57.039 66.2621 56.7443C66.5582 56.4496 66.7931 56.0994 66.9535 55.7136C67.1138 55.3279 67.1963 54.9143 67.1963 54.4965V50.0879C67.1963 49.2428 66.8606 48.4323 66.263 47.8347C65.6654 47.2371 64.8549 46.9014 64.0098 46.9014V57.6676Z" fill="#CCD8E5"/>
<path d="M46.592 50.6137C46.592 51.3486 46.3739 52.067 45.9652 52.6778C45.5566 53.2887 44.9759 53.7645 44.2966 54.045C43.6173 54.3255 42.8701 54.3982 42.1495 54.2537C41.4289 54.1091 40.7675 53.754 40.2489 53.2333C39.7303 52.7125 39.3779 52.0496 39.2365 51.3284C39.095 50.6072 39.1707 49.8603 39.454 49.1822C39.7374 48.5041 40.2157 47.9254 40.8282 47.5193C41.4408 47.1132 42.16 46.8981 42.895 46.9012C43.3818 46.9012 43.8638 46.9973 44.3133 47.184C44.7629 47.3708 45.1711 47.6445 45.5146 47.9895C45.8581 48.3344 46.1301 48.7438 46.315 49.1941C46.4999 49.6444 46.594 50.1269 46.592 50.6137Z" fill="#9CCC52"/>
<path d="M59.8176 50.6139C59.8176 51.3481 59.5998 52.0659 59.1919 52.6764C58.784 53.2869 58.2042 53.7628 57.5258 54.0438C56.8474 54.3248 56.101 54.3983 55.3808 54.255C54.6607 54.1118 53.9992 53.7582 53.4799 53.239C52.9607 52.7198 52.6072 52.0583 52.4639 51.3381C52.3207 50.618 52.3942 49.8715 52.6752 49.1932C52.9562 48.5148 53.432 47.935 54.0425 47.527C54.653 47.1191 55.3708 46.9014 56.1051 46.9014C57.0897 46.9014 58.034 47.2925 58.7302 47.9887C59.4264 48.685 59.8176 49.6293 59.8176 50.6139Z" fill="#9CCC52"/>
<path d="M50.8458 59.5237H48.1543C47.8158 59.5237 47.4806 59.4568 47.168 59.3268C46.8555 59.1968 46.5717 59.0062 46.3331 58.7662C46.0944 58.5261 45.9056 58.2412 45.7775 57.9278C45.6493 57.6145 45.5844 57.2789 45.5865 56.9404C45.5865 56.8379 45.6272 56.7395 45.6997 56.667C45.7723 56.5945 45.8706 56.5537 45.9732 56.5537H53.0269C53.1295 56.5537 53.2279 56.5945 53.3004 56.667C53.3729 56.7395 53.4137 56.8379 53.4137 56.9404C53.4157 57.2789 53.3508 57.6145 53.2227 57.9278C53.0945 58.2412 52.9057 58.5261 52.6671 58.7662C52.4284 59.0062 52.1446 59.1968 51.8321 59.3268C51.5195 59.4568 51.1844 59.5237 50.8458 59.5237Z" fill="#2870AE"/>
<defs>
<linearGradient id="paint0_linear_1_3249" x1="49.4535" y1="12.3728" x2="49.4535" y2="86.6109" gradientUnits="userSpaceOnUse">
<stop stop-color="#9BCB52"/>
<stop offset="1" stop-color="#CEDD45"/>
</linearGradient>
<linearGradient id="paint1_linear_1_3249" x1="49.4536" y1="51.9751" x2="49.4536" y2="86.2706" gradientUnits="userSpaceOnUse">
<stop stop-color="#44A8FF"/>
<stop offset="1" stop-color="#1A75C5"/>
</linearGradient>
</defs>
</svg>
