<svg width="99" height="99" viewBox="0 0 99 99" fill="none" xmlns="http://www.w3.org/2000/svg">
<g clip-path="url(#clip0_1_3263)">
<rect width="99" height="99" rx="10" fill="white" fill-opacity="0.51"/>
<path d="M82.738 47.4607L79.1505 45.5822C74.5319 43.1528 72.9923 40.2574 69.094 36.7828C65.1958 33.3082 56.3822 30.8647 49.8286 30.8647V67.1216C56.3399 67.1216 65.0263 64.8335 69.094 61.2036C73.1618 57.5736 74.5319 54.8194 79.1505 52.4042L82.738 50.5257C83.0157 50.3774 83.2478 50.1565 83.4096 49.8866C83.5715 49.6167 83.657 49.3079 83.657 48.9932C83.657 48.6785 83.5715 48.3696 83.4096 48.0997C83.2478 47.8298 83.0157 47.6089 82.738 47.4607Z" fill="url(#paint0_linear_1_3263)"/>
<path d="M49.8286 39.2825V58.6891C52.4021 58.6891 54.8702 57.6668 56.6899 55.8471C58.5096 54.0274 59.5319 51.5593 59.5319 48.9858C59.5319 46.4123 58.5096 43.9442 56.6899 42.1245C54.8702 40.3048 52.4021 39.2825 49.8286 39.2825Z" fill="#DFE8F4"/>
<path d="M49.8286 44.1414V53.8447C51.0701 53.7777 52.2386 53.2373 53.0938 52.3348C53.9489 51.4323 54.4255 50.2363 54.4255 48.993C54.4255 47.7497 53.9489 46.5538 53.0938 45.6513C52.2386 44.7487 51.0701 44.2084 49.8286 44.1414Z" fill="#CCD8E5"/>
<path d="M49.8286 60.1016V57.2768C52.0275 57.2768 54.1363 56.4033 55.6912 54.8484C57.246 53.2936 58.1195 51.1848 58.1195 48.9859C58.1195 46.787 57.246 44.6782 55.6912 43.1233C54.1363 41.5685 52.0275 40.695 49.8286 40.695V37.8701C52.7767 37.8701 55.604 39.0412 57.6886 41.1258C59.7732 43.2105 60.9444 46.0378 60.9444 48.9859C60.9444 51.934 59.7732 54.7613 57.6886 56.8459C55.604 58.9305 52.7767 60.1016 49.8286 60.1016Z" fill="white"/>
<path d="M71.1274 47.5874H63.7122V50.4122H71.1274V47.5874Z" fill="white"/>
<path d="M73.8395 48.9999C73.8423 49.5229 73.6898 50.0349 73.4013 50.4711C73.1128 50.9073 72.7013 51.2481 72.2189 51.4501C71.7365 51.6522 71.205 51.7065 70.6918 51.6062C70.1785 51.5059 69.7065 51.2555 69.3357 50.8867C68.9649 50.5178 68.712 50.0473 68.6089 49.5345C68.5059 49.0218 68.5573 48.49 68.7568 48.0066C68.9563 47.5231 69.2948 47.1098 69.7295 46.8189C70.1641 46.5281 70.6753 46.3728 71.1983 46.3728C71.8964 46.3728 72.5661 46.6491 73.061 47.1414C73.5559 47.6337 73.8358 48.3019 73.8395 48.9999Z" fill="#2870AE"/>
<path d="M57.6815 43.1242L55.6899 41.1327L59.5882 37.2344V30.0452H62.4131V37.8135C62.4141 37.9994 62.3785 38.1836 62.3082 38.3557C62.2379 38.5278 62.1344 38.6843 62.0035 38.8163L57.6815 43.1242Z" fill="white"/>
<path d="M57.683 54.837L55.6855 56.8345L64.3845 65.5334L66.382 63.536L57.683 54.837Z" fill="white"/>
<path d="M62.8366 22.7432H60.0117V28.3929H62.8366V22.7432Z" fill="#2870AE"/>
<path d="M64.052 21.6838C64.0547 22.2074 63.9019 22.72 63.6127 23.1565C63.3236 23.593 62.9112 23.9337 62.428 24.1353C61.9448 24.337 61.4126 24.3905 60.8989 24.289C60.3853 24.1876 59.9134 23.9357 59.5431 23.5655C59.1729 23.1953 58.9211 22.7234 58.8196 22.2097C58.7181 21.696 58.7716 21.1638 58.9733 20.6806C59.1749 20.1974 59.5157 19.7851 59.9522 19.4959C60.3887 19.2068 60.9013 19.0539 61.4248 19.0567C62.1216 19.0567 62.7898 19.3335 63.2825 19.8261C63.7752 20.3188 64.052 20.987 64.052 21.6838Z" fill="#9CCC52"/>
<path d="M74.4611 28.2655C74.4639 28.7885 74.3114 29.3005 74.0229 29.7367C73.7344 30.173 73.3229 30.5137 72.8405 30.7158C72.3581 30.9178 71.8266 30.9722 71.3133 30.8718C70.8001 30.7715 70.3281 30.5211 69.9573 30.1523C69.5865 29.7835 69.3336 29.3129 69.2305 28.8002C69.1274 28.2874 69.1789 27.7556 69.3784 27.2722C69.5779 26.7887 69.9164 26.3754 70.3511 26.0846C70.7857 25.7937 71.2969 25.6384 71.8199 25.6384C72.518 25.6384 73.1876 25.9147 73.6826 26.407C74.1775 26.8993 74.4574 27.5675 74.4611 28.2655Z" fill="#9CCC52"/>
<path d="M67.5399 26.9802H60.0117V29.8051H67.5399V26.9802Z" fill="#2870AE"/>
<path d="M72.0457 66.9944H66.8057V69.8192H72.0457V66.9944Z" fill="#6FA9F7"/>
<path d="M80.7316 66.9944H73.9802V69.8192H80.7316V66.9944Z" fill="#6FA9F7"/>
<path d="M80.732 76.175H75.4919V78.9999H80.732V76.175Z" fill="#6FA9F7"/>
<path d="M73.557 76.175H66.8057V78.9999H73.557V76.175Z" fill="#6FA9F7"/>
<path d="M80.7321 71.5847H66.8057V74.4096H80.7321V71.5847Z" fill="#6FA9F7"/>
<path d="M16.919 50.5393L20.5065 52.4178C25.1251 54.8472 26.6647 57.7427 30.563 61.2172C34.4612 64.6918 43.2747 67.1353 49.8284 67.1353V30.8784C43.3171 30.8784 34.6307 33.1665 30.563 36.7965C26.4952 40.4264 25.1251 43.1806 20.5065 45.5959L16.919 47.4744C16.6413 47.6226 16.4092 47.8435 16.2473 48.1134C16.0855 48.3833 16 48.6921 16 49.0069C16 49.3216 16.0855 49.6304 16.2473 49.9003C16.4092 50.1702 16.6413 50.3911 16.919 50.5393Z" fill="url(#paint1_linear_1_3263)"/>
<path d="M49.8283 58.7172V39.3105C47.2549 39.3105 44.7868 40.3329 42.967 42.1526C41.1473 43.9723 40.125 46.4404 40.125 49.0139C40.125 51.5874 41.1473 54.0555 42.967 55.8752C44.7868 57.6949 47.2549 58.7172 49.8283 58.7172Z" fill="#DFE8F4"/>
<path d="M49.8288 53.8584V44.155C48.5873 44.222 47.4188 44.7624 46.5637 45.6649C45.7085 46.5674 45.2319 47.7634 45.2319 49.0067C45.2319 50.25 45.7085 51.446 46.5637 52.3485C47.4188 53.251 48.5873 53.7914 49.8288 53.8584Z" fill="#CCD8E5"/>
<path d="M49.8286 60.1302C46.8806 60.1302 44.0532 58.9591 41.9686 56.8745C39.884 54.7899 38.7129 51.9625 38.7129 49.0144C38.7129 46.0664 39.884 43.239 41.9686 41.1544C44.0532 39.0698 46.8806 37.8987 49.8286 37.8987V40.7235C47.6298 40.7235 45.5209 41.597 43.9661 43.1519C42.4112 44.7067 41.5377 46.8155 41.5377 49.0144C41.5377 51.2133 42.4112 53.3222 43.9661 54.877C45.5209 56.4318 47.6298 57.3054 49.8286 57.3054V60.1302Z" fill="white"/>
<path d="M35.944 47.5874H28.5288V50.4122H35.944V47.5874Z" fill="white"/>
<path d="M25.8872 49.0001C25.8844 48.4771 26.037 47.9651 26.3255 47.5289C26.614 47.0927 27.0255 46.7519 27.5079 46.5499C27.9903 46.3478 28.5218 46.2935 29.035 46.3938C29.5483 46.4941 30.0203 46.7445 30.3911 47.1133C30.7618 47.4821 31.0148 47.9527 31.1179 48.4655C31.2209 48.9782 31.1695 49.51 30.97 49.9934C30.7705 50.4769 30.432 50.8902 29.9973 51.1811C29.5627 51.4719 29.0515 51.6272 28.5285 51.6272C27.8304 51.6272 27.1607 51.3509 26.6658 50.8586C26.1709 50.3663 25.891 49.6981 25.8872 49.0001Z" fill="#2870AE"/>
<path d="M40.0685 67.9545H37.2437V60.1862C37.2426 60.0003 37.2782 59.816 37.3485 59.644C37.4188 59.4719 37.5224 59.3153 37.6533 59.1834L41.9753 54.8755L43.9668 56.867L40.0685 60.7653V67.9545Z" fill="white"/>
<path d="M35.2724 32.4662L33.2749 34.4636L41.9739 43.1626L43.9713 41.1651L35.2724 32.4662Z" fill="white"/>
<path d="M39.6452 69.6072H36.8203V75.2569H39.6452V69.6072Z" fill="#2870AE"/>
<path d="M35.6048 76.316C35.602 75.7924 35.7549 75.2798 36.044 74.8433C36.3332 74.4068 36.7455 74.0661 37.2287 73.8644C37.7119 73.6627 38.2441 73.6092 38.7578 73.7107C39.2714 73.8122 39.7434 74.064 40.1136 74.4342C40.4838 74.8045 40.7357 75.2764 40.8371 75.7901C40.9386 76.3037 40.8851 76.8359 40.6834 77.3191C40.4818 77.8023 40.1411 78.2147 39.7046 78.5038C39.2681 78.793 38.7555 78.9459 38.2319 78.9431C37.5351 78.9431 36.8669 78.6663 36.3742 78.1736C35.8816 77.6809 35.6048 77.0127 35.6048 76.316Z" fill="#9CCC52"/>
<path d="M25.1956 69.734C25.1928 69.211 25.3453 68.699 25.6338 68.2628C25.9224 67.8266 26.3339 67.4858 26.8162 67.2837C27.2986 67.0817 27.8301 67.0273 28.3434 67.1277C28.8567 67.228 29.3286 67.4784 29.6994 67.8472C30.0702 68.216 30.3232 68.6866 30.4262 69.1993C30.5293 69.7121 30.4778 70.2439 30.2783 70.7273C30.0788 71.2108 29.7403 71.6241 29.3057 71.9149C28.871 72.2058 28.3598 72.3611 27.8368 72.3611C27.1388 72.3611 26.4691 72.0847 25.9742 71.5925C25.4792 71.1002 25.1993 70.432 25.1956 69.734Z" fill="#9CCC52"/>
<path d="M39.6447 68.1946H32.1165V71.0194H39.6447V68.1946Z" fill="#2870AE"/>
<path d="M32.8651 28.1807H27.625V31.0055H32.8651V28.1807Z" fill="#6FA9F7"/>
<path d="M25.6762 28.1807H18.9248V31.0055H25.6762V28.1807Z" fill="#6FA9F7"/>
<path d="M24.1649 19H18.9248V21.8248H24.1649V19Z" fill="#6FA9F7"/>
<path d="M32.8507 19H26.0994V21.8248H32.8507V19Z" fill="#6FA9F7"/>
<path d="M32.8513 23.5903H18.9248V26.4152H32.8513V23.5903Z" fill="#6FA9F7"/>
</g>
<defs>
<linearGradient id="paint0_linear_1_3263" x1="66.7428" y1="30.8647" x2="66.7428" y2="67.1216" gradientUnits="userSpaceOnUse">
<stop stop-color="#9BCB52"/>
<stop offset="1" stop-color="#CEDD45"/>
</linearGradient>
<linearGradient id="paint1_linear_1_3263" x1="32.9142" y1="30.8784" x2="32.9142" y2="67.1353" gradientUnits="userSpaceOnUse">
<stop stop-color="#9BCB52"/>
<stop offset="1" stop-color="#CEDD45"/>
</linearGradient>
<clipPath id="clip0_1_3263">
<rect width="99" height="99" rx="10" fill="white"/>
</clipPath>
</defs>
</svg>
