<svg width="99" height="99" viewBox="0 0 99 99" fill="none" xmlns="http://www.w3.org/2000/svg">
<rect width="99" height="99" rx="10" fill="white" fill-opacity="0.51"/>
<path d="M77.733 68.3087C78.2182 67.5645 78.6083 66.7624 78.8942 65.9212L78.9986 65.6602C78.9986 65.4906 79.0899 65.308 79.1421 65.1253C79.1943 64.9426 79.2334 64.7861 79.2726 64.6165C79.3117 64.4469 79.3378 64.2903 79.3639 64.1337C79.39 63.9772 79.4422 63.7293 79.4683 63.5205V63.0639V62.3855C79.4683 62.2941 79.4683 62.2028 79.4683 62.1115C79.4683 62.0202 79.4683 62.0071 79.4683 61.9549C79.4812 61.7159 79.4812 61.4764 79.4683 61.2373C79.4683 61.1069 79.4683 60.9764 79.4683 60.8459C79.4747 60.8027 79.4747 60.7587 79.4683 60.7155C79.3908 60.0386 79.2511 59.3704 79.0508 58.7193C79.0233 58.6651 79.0015 58.6083 78.9855 58.5497C78.8992 58.2752 78.799 58.0052 78.6854 57.7408C78.6854 57.6233 78.5941 57.5059 78.5419 57.3885L78.3201 56.8144C78.2549 56.6709 78.1766 56.5405 78.0983 56.3969L77.8243 55.9534L77.5243 55.5098L77.2503 55.1444L76.885 54.6748C76.8135 54.5859 76.735 54.503 76.6501 54.4269C76.3395 54.0771 76.0084 53.746 75.6586 53.4353L75.515 53.3048L75.0715 52.9526L74.68 52.6655L74.2626 52.3916L73.7798 52.1045L73.3362 51.9219L72.723 51.6218L72.3968 51.4913C72.1419 51.38 71.8805 51.2842 71.614 51.2043H71.4183C70.7525 50.9402 70.0619 50.7436 69.3569 50.6172H69.1873C68.8179 50.598 68.4477 50.598 68.0783 50.6172C67.713 50.6172 67.3347 50.6172 66.9824 50.6172C66.6318 50.6492 66.2833 50.7015 65.9386 50.7737H65.8082C65.4776 50.8379 65.1509 50.9207 64.8297 51.0216H64.6992C64.3861 51.126 64.0729 51.2304 63.7729 51.3609L63.6294 51.4261C63.2979 51.5718 62.9754 51.7373 62.6639 51.9219L62.5204 52.0002C62.2333 52.1567 61.9594 52.3263 61.6854 52.509L61.581 52.5742L60.7851 53.1744H60.7069C60.4424 53.3911 60.1898 53.6219 59.9501 53.8659C59.7022 54.1137 59.4674 54.3747 59.2456 54.6356C59.0238 54.8966 58.8281 55.1705 58.6324 55.4445C58.6155 55.4821 58.5935 55.5172 58.5672 55.5489C58.3824 55.8177 58.2125 56.0964 58.0583 56.3839L57.9801 56.5144C57.8365 56.8014 57.693 57.0884 57.5626 57.3885C57.5433 57.4374 57.5215 57.4853 57.4973 57.532C57.3799 57.8321 57.2625 58.1452 57.1711 58.4583C57.1658 58.506 57.1658 58.5542 57.1711 58.6019C57.0798 58.928 56.9885 59.2412 56.9233 59.5804C56.9233 59.5804 56.9233 59.6587 56.9233 59.7109C56.9233 60.0501 56.8058 60.3893 56.7667 60.7416C56.7721 60.7718 56.7721 60.8027 56.7667 60.8329C56.7667 61.1982 56.7667 61.5635 56.7667 61.9419C56.7632 63.3218 56.3844 64.6748 55.6708 65.8559L54.6792 67.4737C54.5828 67.6187 54.5164 67.7815 54.4839 67.9525C54.4514 68.1235 54.4534 68.2993 54.4899 68.4695C54.5264 68.6397 54.5965 68.8009 54.6963 68.9436C54.796 69.0863 54.9233 69.2076 55.0706 69.3003L55.8534 69.8483C56.1009 70.0103 56.2744 70.2635 56.3361 70.5528L57.3016 74.8844C57.4137 75.386 57.6805 75.8398 58.0645 76.1816C58.4484 76.5234 58.93 76.736 59.4413 76.7892L61.7636 77.0241C62.0771 77.0684 62.3638 77.2251 62.5702 77.4652C62.7767 77.7052 62.8888 78.0122 62.8857 78.3287V80.625H78.0983L76.9111 72.4185C76.6927 70.9945 76.9838 69.5392 77.733 68.3087Z" fill="#CCD8E5"/>
<path d="M18.8135 68.3085C18.3386 67.5584 17.9491 66.7576 17.6523 65.9209C17.6523 65.8296 17.5871 65.7513 17.561 65.66C17.5349 65.5686 17.4566 65.3077 17.4175 65.125C17.3784 64.9424 17.3131 64.7858 17.274 64.6162C17.2348 64.4466 17.274 64.29 17.1827 64.1335C17.0913 63.9769 17.1174 63.729 17.0913 63.5203V63.0636C17.0464 62.8309 17.0159 62.5956 17 62.3591C17 62.2678 17 62.1765 17 62.0851C17 61.9938 17 61.9807 17 61.9286C17 61.8764 17 61.4458 17 61.211V60.8196V60.6891C17.088 60.0129 17.232 59.3453 17.4305 58.6929C17.4252 58.6365 17.4252 58.5797 17.4305 58.5233C17.5219 58.2493 17.6132 57.9754 17.7176 57.7144L17.8741 57.3622L18.3047 56.8142L18.5395 56.3967L18.8135 55.9531C18.9059 55.8002 19.006 55.6521 19.1136 55.5095C19.1931 55.3826 19.2802 55.2606 19.3745 55.1442L19.7398 54.6745L19.9747 54.4266C20.2898 54.0767 20.6253 53.7456 20.9793 53.435L21.1228 53.3046L21.5664 52.9523L21.9578 52.6653L22.3753 52.3913L22.858 52.1043L23.2364 51.8955L23.8496 51.5954L24.1627 51.465C24.4237 51.3606 24.6846 51.2562 24.9455 51.1779H25.1543C25.8128 50.9249 26.4945 50.737 27.1896 50.6169H27.4375C27.8069 50.5974 28.1771 50.5974 28.5465 50.6169C28.9118 50.6169 29.2771 50.6169 29.6424 50.6169C29.9931 50.6489 30.3416 50.7012 30.6862 50.7735H30.8036C31.1349 50.8345 31.4617 50.9174 31.7821 51.0214H31.9256C32.2387 51.1258 32.5519 51.2301 32.8519 51.3606L32.9955 51.4258C33.2955 51.5563 33.5826 51.6868 33.8696 51.8433L34.0131 51.9216C34.2871 52.0782 34.5741 52.2478 34.8351 52.4304L34.9525 52.4957L35.7484 53.0958C36.0171 53.3125 36.274 53.5433 36.5181 53.7873C36.766 54.0352 37.0009 54.2961 37.2227 54.5571C37.4383 54.8148 37.6387 55.0849 37.8228 55.366L37.9011 55.4704C38.0859 55.7392 38.2557 56.0179 38.4099 56.3054L38.4752 56.4358C38.6317 56.7229 38.7752 57.0099 38.9057 57.31C38.9057 57.31 38.9057 57.4143 38.9057 57.4535C39.0381 57.7548 39.1514 58.0642 39.2449 58.3798C39.2449 58.3798 39.2449 58.4711 39.2449 58.5233C39.3362 58.8495 39.4276 59.1626 39.4928 59.5018C39.4928 59.5018 39.4928 59.5801 39.4928 59.6323C39.558 59.9715 39.6102 60.3108 39.6494 60.663V61.0544C39.6692 61.4238 39.6692 61.794 39.6494 62.1634C39.6529 63.5433 40.0317 64.8963 40.7453 66.0775L41.7369 67.6953C41.9148 67.9928 41.9734 68.3467 41.9008 68.6856C41.8281 69.0246 41.6297 69.3234 41.3455 69.5218L40.5627 70.0698C40.3152 70.2318 40.1417 70.485 40.0799 70.7743L39.1145 75.1059C39.0006 75.6067 38.7332 76.0594 38.3496 76.4009C37.966 76.7424 37.4854 76.9556 36.9748 77.0107L34.6524 77.2456C34.3389 77.2899 34.0523 77.4467 33.8458 77.6867C33.6394 77.9268 33.5273 78.2337 33.5304 78.5503V80.6247H18.4482L19.6094 72.4182C19.8495 70.9972 19.5668 69.5372 18.8135 68.3085Z" fill="url(#paint0_linear_1_3314)"/>
<path d="M51.5088 29.6376L39.0752 42.0713C38.5659 42.5936 37.9572 43.0087 37.285 43.2921C36.6128 43.5756 35.8906 43.7216 35.1611 43.7216C34.4316 43.7216 33.7094 43.5756 33.0372 43.2921C32.365 43.0087 31.7563 42.5936 31.247 42.0713C30.7346 41.5631 30.3279 40.9584 30.0503 40.2923C29.7728 39.6261 29.6299 38.9115 29.6299 38.1898C29.6299 37.4681 29.7728 36.7536 30.0503 36.0874C30.3279 35.4212 30.7346 34.8166 31.247 34.3084L39.9232 25.6322C40.4164 25.1383 41.0021 24.7465 41.6469 24.4792C42.2916 24.2118 42.9827 24.0742 43.6807 24.0742C44.3787 24.0742 45.0698 24.2118 45.7146 24.4792C46.3593 24.7465 46.945 25.1383 47.4382 25.6322L51.5088 29.6376Z" fill="url(#paint1_linear_1_3314)"/>
<path d="M59.7548 18L62.2206 20.4789L52.9834 29.7422C52.8913 29.8353 52.7815 29.9092 52.6606 29.9596C52.5397 30.01 52.4099 30.036 52.2789 30.036C52.1479 30.036 52.0182 30.01 51.8972 29.9596C51.7763 29.9092 51.6666 29.8353 51.5744 29.7422L46.7079 24.8887C46.3163 24.4951 45.8507 24.1827 45.338 23.9695C44.8253 23.7563 44.2755 23.6465 43.7202 23.6465C43.1649 23.6465 42.6151 23.7563 42.1023 23.9695C41.5896 24.1827 41.124 24.4951 40.7324 24.8887L35.9573 29.6639L44.516 38.2096L48.5866 42.2672C49.0718 42.7563 49.649 43.1446 50.2849 43.4095C50.9209 43.6745 51.603 43.8109 52.292 43.8109C52.9809 43.8109 53.663 43.6745 54.299 43.4095C54.9349 43.1446 55.5121 42.7563 55.9973 42.2672L60.0548 38.1966L69.9966 28.2548L72.4624 30.7207V18H59.7548Z" fill="url(#paint2_linear_1_3314)"/>
<defs>
<linearGradient id="paint0_linear_1_3314" x1="29.4656" y1="50.6023" x2="29.4656" y2="80.6247" gradientUnits="userSpaceOnUse">
<stop stop-color="#9BCB52"/>
<stop offset="1" stop-color="#CEDD45"/>
</linearGradient>
<linearGradient id="paint1_linear_1_3314" x1="40.5694" y1="24.0742" x2="40.5694" y2="43.7216" gradientUnits="userSpaceOnUse">
<stop stop-color="#44A8FF"/>
<stop offset="1" stop-color="#1A75C5"/>
</linearGradient>
<linearGradient id="paint2_linear_1_3314" x1="54.2099" y1="18" x2="54.2099" y2="43.8109" gradientUnits="userSpaceOnUse">
<stop stop-color="#9BCB52"/>
<stop offset="1" stop-color="#CEDD45"/>
</linearGradient>
</defs>
</svg>
