<svg width="68" height="60" viewBox="0 0 68 60" fill="none" xmlns="http://www.w3.org/2000/svg">
<path d="M66.738 28.4607L63.1505 26.5822C58.5319 24.1528 56.9923 21.2574 53.094 17.7828C49.1958 14.3082 40.3822 11.8647 33.8286 11.8647V48.1216C40.3399 48.1216 49.0263 45.8335 53.094 42.2036C57.1618 38.5736 58.5319 35.8194 63.1505 33.4042L66.738 31.5257C67.0157 31.3774 67.2478 31.1565 67.4096 30.8866C67.5715 30.6167 67.657 30.3079 67.657 29.9932C67.657 29.6785 67.5715 29.3696 67.4096 29.0997C67.2478 28.8298 67.0157 28.6089 66.738 28.4607Z" fill="url(#paint0_linear_1_3265)"/>
<path d="M33.8286 20.2825V39.6891C36.4021 39.6891 38.8702 38.6668 40.6899 36.8471C42.5096 35.0274 43.5319 32.5593 43.5319 29.9858C43.5319 27.4123 42.5096 24.9442 40.6899 23.1245C38.8702 21.3048 36.4021 20.2825 33.8286 20.2825Z" fill="#DFE8F4"/>
<path d="M33.8286 25.1414V34.8447C35.0701 34.7777 36.2386 34.2373 37.0938 33.3348C37.9489 32.4323 38.4255 31.2363 38.4255 29.993C38.4255 28.7497 37.9489 27.5538 37.0938 26.6513C36.2386 25.7487 35.0701 25.2084 33.8286 25.1414Z" fill="#CCD8E5"/>
<path d="M33.8286 41.1016V38.2768C36.0275 38.2768 38.1363 37.4033 39.6912 35.8484C41.246 34.2936 42.1195 32.1848 42.1195 29.9859C42.1195 27.787 41.246 25.6782 39.6912 24.1233C38.1363 22.5685 36.0275 21.695 33.8286 21.695V18.8701C36.7767 18.8701 39.604 20.0412 41.6886 22.1258C43.7732 24.2105 44.9444 27.0378 44.9444 29.9859C44.9444 32.934 43.7732 35.7613 41.6886 37.8459C39.604 39.9305 36.7767 41.1016 33.8286 41.1016Z" fill="white"/>
<path d="M55.1274 28.5874H47.7122V31.4122H55.1274V28.5874Z" fill="white"/>
<path d="M57.8395 29.9999C57.8423 30.5229 57.6898 31.0349 57.4013 31.4711C57.1128 31.9073 56.7013 32.2481 56.2189 32.4501C55.7365 32.6522 55.205 32.7065 54.6918 32.6062C54.1785 32.5059 53.7065 32.2555 53.3357 31.8867C52.9649 31.5178 52.712 31.0473 52.6089 30.5345C52.5059 30.0218 52.5573 29.49 52.7568 29.0066C52.9563 28.5231 53.2948 28.1098 53.7295 27.8189C54.1641 27.5281 54.6753 27.3728 55.1983 27.3728C55.8964 27.3728 56.5661 27.6491 57.061 28.1414C57.5559 28.6337 57.8358 29.3019 57.8395 29.9999Z" fill="#2870AE"/>
<path d="M41.6815 24.1242L39.6899 22.1327L43.5882 18.2344V11.0452H46.4131V18.8135C46.4141 18.9994 46.3785 19.1836 46.3082 19.3557C46.2379 19.5278 46.1344 19.6843 46.0035 19.8163L41.6815 24.1242Z" fill="white"/>
<path d="M41.683 35.837L39.6855 37.8345L48.3845 46.5334L50.382 44.536L41.683 35.837Z" fill="white"/>
<path d="M46.8366 3.74316H44.0117V9.39285H46.8366V3.74316Z" fill="#2870AE"/>
<path d="M48.052 2.68378C48.0547 3.20736 47.9019 3.71995 47.6127 4.15646C47.3236 4.59296 46.9112 4.93368 46.428 5.13534C45.9448 5.337 45.4126 5.39049 44.8989 5.28903C44.3853 5.18757 43.9134 4.93573 43.5431 4.5655C43.1729 4.19527 42.9211 3.72335 42.8196 3.20969C42.7181 2.69603 42.7716 2.1638 42.9733 1.68061C43.1749 1.19742 43.5157 0.78506 43.9522 0.495915C44.3887 0.206771 44.9013 0.0538857 45.4248 0.0566782C46.1216 0.0566782 46.7898 0.333461 47.2825 0.826138C47.7752 1.31882 48.052 1.98703 48.052 2.68378Z" fill="#9CCC52"/>
<path d="M58.4611 9.26553C58.4639 9.78851 58.3114 10.3005 58.0229 10.7367C57.7344 11.173 57.3229 11.5137 56.8405 11.7158C56.3581 11.9178 55.8266 11.9722 55.3133 11.8718C54.8001 11.7715 54.3281 11.5211 53.9573 11.1523C53.5865 10.7835 53.3336 10.3129 53.2305 9.80015C53.1274 9.28742 53.1789 8.75564 53.3784 8.27219C53.5779 7.78875 53.9164 7.37541 54.3511 7.08455C54.7857 6.7937 55.2969 6.63844 55.8199 6.63843C56.518 6.63842 57.1876 6.91475 57.6826 7.40702C58.1775 7.8993 58.4574 8.56748 58.4611 9.26553Z" fill="#9CCC52"/>
<path d="M51.5399 7.98022H44.0117V10.8051H51.5399V7.98022Z" fill="#2870AE"/>
<path d="M56.0457 47.9944H50.8057V50.8192H56.0457V47.9944Z" fill="#6FA9F7"/>
<path d="M64.7316 47.9944H57.9802V50.8192H64.7316V47.9944Z" fill="#6FA9F7"/>
<path d="M64.732 57.175H59.4919V59.9999H64.732V57.175Z" fill="#6FA9F7"/>
<path d="M57.557 57.175H50.8057V59.9999H57.557V57.175Z" fill="#6FA9F7"/>
<path d="M64.7321 52.5847H50.8057V55.4096H64.7321V52.5847Z" fill="#6FA9F7"/>
<path d="M0.918957 31.5393L4.50651 33.4178C9.12513 35.8472 10.6647 38.7427 14.563 42.2172C18.4612 45.6918 27.2747 48.1353 33.8284 48.1353V11.8784C27.3171 11.8784 18.6307 14.1665 14.563 17.7965C10.4952 21.4264 9.12513 24.1806 4.50651 26.5959L0.918957 28.4744C0.641337 28.6226 0.409202 28.8435 0.247348 29.1134C0.0854935 29.3833 0 29.6921 0 30.0069C0 30.3216 0.0854935 30.6304 0.247348 30.9003C0.409202 31.1702 0.641337 31.3911 0.918957 31.5393Z" fill="url(#paint1_linear_1_3265)"/>
<path d="M33.8283 39.7172V20.3105C31.2549 20.3105 28.7868 21.3329 26.967 23.1526C25.1473 24.9723 24.125 27.4404 24.125 30.0139C24.125 32.5874 25.1473 35.0555 26.967 36.8752C28.7868 38.6949 31.2549 39.7172 33.8283 39.7172Z" fill="#DFE8F4"/>
<path d="M33.8288 34.8584V25.155C32.5873 25.222 31.4188 25.7624 30.5637 26.6649C29.7085 27.5674 29.2319 28.7634 29.2319 30.0067C29.2319 31.25 29.7085 32.446 30.5637 33.3485C31.4188 34.251 32.5873 34.7914 33.8288 34.8584Z" fill="#CCD8E5"/>
<path d="M33.8286 41.1302C30.8806 41.1302 28.0532 39.9591 25.9686 37.8745C23.884 35.7899 22.7129 32.9625 22.7129 30.0144C22.7129 27.0664 23.884 24.239 25.9686 22.1544C28.0532 20.0698 30.8806 18.8987 33.8286 18.8987V21.7235C31.6298 21.7235 29.5209 22.597 27.9661 24.1519C26.4112 25.7067 25.5377 27.8155 25.5377 30.0144C25.5377 32.2133 26.4112 34.3222 27.9661 35.877C29.5209 37.4318 31.6298 38.3054 33.8286 38.3054V41.1302Z" fill="white"/>
<path d="M19.944 28.5874H12.5288V31.4122H19.944V28.5874Z" fill="white"/>
<path d="M9.88724 30.0001C9.88445 29.4771 10.037 28.9651 10.3255 28.5289C10.614 28.0927 11.0255 27.7519 11.5079 27.5499C11.9903 27.3478 12.5218 27.2935 13.035 27.3938C13.5483 27.4941 14.0203 27.7445 14.3911 28.1133C14.7618 28.4821 15.0148 28.9527 15.1179 29.4655C15.2209 29.9782 15.1695 30.51 14.97 30.9934C14.7705 31.4769 14.432 31.8902 13.9973 32.1811C13.5627 32.4719 13.0515 32.6272 12.5285 32.6272C11.8304 32.6272 11.1607 32.3509 10.6658 31.8586C10.1709 31.3663 9.89098 30.6981 9.88724 30.0001Z" fill="#2870AE"/>
<path d="M24.0685 48.9545H21.2437V41.1862C21.2426 41.0003 21.2782 40.816 21.3485 40.644C21.4188 40.4719 21.5224 40.3153 21.6533 40.1834L25.9753 35.8755L27.9668 37.867L24.0685 41.7653V48.9545Z" fill="white"/>
<path d="M19.2724 13.4662L17.2749 15.4636L25.9739 24.1626L27.9713 22.1651L19.2724 13.4662Z" fill="white"/>
<path d="M23.6452 50.6072H20.8203V56.2569H23.6452V50.6072Z" fill="#2870AE"/>
<path d="M19.6048 57.316C19.602 56.7924 19.7549 56.2798 20.044 55.8433C20.3332 55.4068 20.7455 55.0661 21.2287 54.8644C21.7119 54.6627 22.2441 54.6092 22.7578 54.7107C23.2714 54.8122 23.7434 55.064 24.1136 55.4342C24.4838 55.8045 24.7357 56.2764 24.8371 56.7901C24.9386 57.3037 24.8851 57.8359 24.6834 58.3191C24.4818 58.8023 24.1411 59.2147 23.7046 59.5038C23.2681 59.793 22.7555 59.9459 22.2319 59.9431C21.5351 59.9431 20.8669 59.6663 20.3742 59.1736C19.8816 58.6809 19.6048 58.0127 19.6048 57.316Z" fill="#9CCC52"/>
<path d="M9.19559 50.734C9.1928 50.211 9.34532 49.699 9.63384 49.2628C9.92236 48.8266 10.3339 48.4858 10.8162 48.2837C11.2986 48.0817 11.8301 48.0273 12.3434 48.1277C12.8567 48.228 13.3286 48.4784 13.6994 48.8472C14.0702 49.216 14.3232 49.6866 14.4262 50.1993C14.5293 50.7121 14.4778 51.2439 14.2783 51.7273C14.0788 52.2108 13.7403 52.6241 13.3057 52.9149C12.871 53.2058 12.3598 53.3611 11.8368 53.3611C11.1388 53.3611 10.4691 53.0847 9.97417 52.5925C9.47925 52.1002 9.19933 51.432 9.19559 50.734Z" fill="#9CCC52"/>
<path d="M23.6447 49.1946H16.1165V52.0194H23.6447V49.1946Z" fill="#2870AE"/>
<path d="M16.8651 9.18066H11.625V12.0055H16.8651V9.18066Z" fill="#6FA9F7"/>
<path d="M9.67618 9.18066H2.9248V12.0055H9.67618V9.18066Z" fill="#6FA9F7"/>
<path d="M8.16489 0H2.9248V2.82484H8.16489V0Z" fill="#6FA9F7"/>
<path d="M16.8507 0H10.0994V2.82484H16.8507V0Z" fill="#6FA9F7"/>
<path d="M16.8513 4.59033H2.9248V7.41518H16.8513V4.59033Z" fill="#6FA9F7"/>
<defs>
<linearGradient id="paint0_linear_1_3265" x1="50.7428" y1="11.8647" x2="50.7428" y2="48.1216" gradientUnits="userSpaceOnUse">
<stop stop-color="#9BCB52"/>
<stop offset="1" stop-color="#CEDD45"/>
</linearGradient>
<linearGradient id="paint1_linear_1_3265" x1="16.9142" y1="11.8784" x2="16.9142" y2="48.1353" gradientUnits="userSpaceOnUse">
<stop stop-color="#9BCB52"/>
<stop offset="1" stop-color="#CEDD45"/>
</linearGradient>
</defs>
</svg>
