<svg width="239" height="84" viewBox="0 0 239 84" fill="none" xmlns="http://www.w3.org/2000/svg">
<path d="M144.681 54.9344C141.651 55.4227 138.726 56.2666 135.9 57.4614C134.947 57.8644 133.98 58.1536 132.937 58.054C132.591 58.0208 132.245 57.8975 132.236 57.4803C132.226 57.1153 132.473 56.8687 132.819 56.7455C133.615 56.4563 134.416 56.1813 135.199 55.8684C135.298 55.8304 135.341 55.5934 135.36 55.4417C135.388 55.2426 135.265 55.1477 135.052 55.1146C134.032 54.9581 133.023 55.0719 132.013 55.1952C126.433 55.8636 120.961 57.0394 115.595 58.7272C114.542 59.0591 113.466 59.3246 112.385 59.5427C111.745 59.6754 111.171 59.481 111.105 58.694C111.057 58.1488 110.716 57.9023 110.275 57.9971C107.606 58.5755 104.861 58.4238 102.173 58.8315C101.172 58.9832 100.082 59.1776 99.1386 58.9311C96.3224 58.1962 93.7622 59.0211 91.1879 59.9077C90.472 60.1543 89.8082 60.5857 88.9975 60.4766C88.7273 60.4387 88.5139 60.3249 88.4238 60.0594C88.3337 59.7845 88.4618 59.5474 88.6751 59.4099C89.8177 58.6751 90.9698 57.9592 92.1266 57.2433C92.7619 56.8498 93.4493 56.5179 94.0135 55.6124C92.4347 55.7973 91.2116 56.3851 89.9457 56.7834C88.8126 57.139 87.708 57.5799 86.5701 57.9023C86.0012 58.0635 85.3517 58.0824 85.0246 57.3997C84.7448 56.8118 84.2754 56.7929 83.7492 56.8924C82.417 57.1532 81.0563 57.3191 79.7573 57.6984C75.7416 58.86 71.6075 59.3388 67.4828 59.8129C62.9124 60.3392 58.3895 61.0266 54.0278 62.5485C53.3925 62.7713 52.7145 62.8993 52.046 63.0036C51.6335 63.07 51.1642 63.0558 50.9745 62.558C50.7801 62.0459 51.1168 61.8089 51.5197 61.586C52.0081 61.3158 52.7192 61.3111 52.852 60.5667L53.0132 60.5715L52.9041 60.6378C50.6379 60.396 48.5519 61.2068 46.4374 61.7947C44.8065 62.2498 43.2183 62.8709 41.5968 63.3781C41.0374 63.5536 40.3167 63.876 39.8853 63.6721C38.6479 63.0937 37.6381 63.345 36.5998 64.0419C36.4196 64.1604 36.1067 64.1225 35.8601 64.094C35.7037 64.0798 35.4667 63.985 35.4288 63.876C35.3576 63.6579 35.3102 63.3307 35.4288 63.1838C35.6848 62.8566 36.0403 62.6054 36.3675 62.3446C38.3018 60.818 40.2456 59.3056 42.1657 57.7648C42.6019 57.4139 43.1851 57.1153 43.1282 56.2382C41.4593 56.608 39.9327 57.267 38.3919 57.8881C31.7023 60.5904 25.0222 63.326 18.3042 65.9667C13.5347 67.8394 8.59459 69.0626 3.43162 69.1622C2.47868 69.1812 1.60157 69.4846 0.686554 69.6647C0.487432 69.7027 0.117648 69.5842 0.051274 69.4324C-0.119403 69.0626 0.165012 68.7877 0.477919 68.6454C0.861942 68.4748 1.26969 68.3183 1.68216 68.2614C2.77259 68.105 3.87254 67.9248 4.97245 67.8916C8.66097 67.7826 12.2167 66.9624 15.7061 65.8625C18.9442 64.8384 22.1017 63.5962 25.245 62.2972C32.5414 59.2819 39.8142 56.1908 47.2528 53.5263C47.5705 53.4125 47.8692 53.2371 48.1963 53.1423C48.6088 53.0238 49.0592 52.9621 49.3815 53.3319C49.8651 53.8772 49.4005 54.2612 49.0781 54.6262C48.5281 55.2426 48.0683 55.8542 47.0964 56.0628C45.5698 56.3946 44.4461 57.5325 43.441 58.6988C43.332 58.822 43.4884 59.1729 43.5074 59.4052C43.351 59.3151 43.2135 59.225 43.0618 59.1681C43.0144 59.1492 42.9338 59.225 42.8721 59.2582C43.076 59.2961 43.2799 59.3388 43.4837 59.3767C43.8725 59.2061 44.247 58.9927 44.65 58.8695C45.2758 58.6798 46.0107 58.2152 46.5369 58.86C46.9636 59.3815 46.1103 59.903 46.2193 60.5051C46.6223 60.7611 47.0348 60.6473 47.452 60.5525C49.1113 60.1827 50.7754 59.8461 52.4206 59.4336C53.1791 59.244 53.9282 59.1539 54.6915 59.2203C55.0139 59.2487 55.5212 59.3198 55.6112 59.5237C56.2228 60.8701 57.2896 60.3961 58.2425 60.2301C63.3486 59.3246 68.5258 58.9074 73.6366 58.0635C78.9987 57.1769 84.2755 55.8494 89.4479 54.1521C91.3111 53.5405 93.1838 53.038 95.1419 52.8294C97.337 52.5923 99.5226 52.2605 101.718 51.9997C102.215 51.9381 102.737 51.9618 103.235 52.0424C103.405 52.0708 103.571 52.3742 103.652 52.5876C103.685 52.6729 103.51 52.8768 103.387 52.9764C102.884 53.3746 102.268 53.3651 101.68 53.3651C100.343 53.3604 99.2192 53.7823 98.1951 54.6736C97.5029 55.2805 96.6305 55.6835 95.8388 56.1813C95.1324 56.6222 94.3549 56.9873 93.9614 58.0255C96.1375 57.4424 98.2425 57.7932 100.338 57.7743C103.548 57.7411 106.791 57.5467 109.977 56.9304C111.977 56.5416 113.983 56.1718 115.983 55.783C116.922 55.6029 117.828 55.4891 118.558 56.3425C118.861 56.6981 119.335 56.6412 119.757 56.5511C120.668 56.352 121.578 56.1244 122.488 55.9063C126.546 54.9439 130.652 54.2801 134.824 54.0858C135.763 54.0431 136.73 53.9293 137.498 54.6073C138.242 55.2663 139.053 55.1572 139.897 54.9581C142.215 54.4271 144.553 53.9672 146.843 53.3414C149.071 52.7298 151.361 52.5923 153.622 52.2225C153.779 52.1941 153.987 52.1988 154.111 52.2794C154.31 52.4122 154.518 52.5971 154.613 52.8104C154.718 53.0427 154.608 53.2845 154.381 53.4552C153.798 53.8819 153.087 53.8345 152.428 53.9577C147.563 54.8965 143.007 56.7597 138.451 58.6277C138.337 58.6751 138.219 58.8931 138.224 59.0212C138.242 59.3198 138.461 59.4289 138.75 59.3815C140.594 59.0923 142.462 58.8884 144.283 58.4902C147.279 57.8359 150.342 57.6368 153.347 57.1058C156.472 56.5558 159.605 56.6649 162.744 56.5558C165.712 56.4515 168.675 56.1528 171.638 55.911C176.294 55.527 180.95 55.0956 185.605 54.7305C189.36 54.4366 193.063 54.7305 196.718 55.7262C198.676 56.2571 200.705 56.57 202.716 56.8877C206.12 57.4329 209.296 56.5606 212.34 55.1193C213.032 54.7922 213.648 54.3797 214.459 54.356C218.38 54.2422 222.22 53.4884 226.06 52.7725C227.156 52.5686 228.251 52.4928 229.351 52.6018C229.55 52.6208 229.792 52.8484 229.901 53.0427C230.095 53.3793 229.91 53.7017 229.659 53.9388C229.27 54.3038 228.758 54.4034 228.251 54.4698C224.714 54.9154 221.177 55.3516 217.64 55.7925C217.389 55.8257 217.105 55.9063 216.882 55.8305C214.943 55.1762 213.165 55.8494 211.472 56.6175C207.58 58.3811 203.597 58.4996 199.515 57.5325C198.359 57.2575 197.173 57.0726 196.045 56.7123C193.082 55.7688 190.048 55.6266 186.975 55.7499C182.983 55.911 179.025 56.4468 175.047 56.7787C171.069 57.1058 167.092 57.4661 163.109 57.7648C162.853 57.7837 162.597 57.8027 162.346 57.7695C156.946 57.0773 151.688 58.3337 146.392 59.0022C143.87 59.3198 141.391 59.9409 138.883 60.3866C137.797 60.5809 136.697 60.7374 135.592 60.5003C135.241 60.4245 134.938 60.2159 134.843 59.8888C134.734 59.5142 135.004 59.2582 135.331 59.1112C136.028 58.7983 136.73 58.4949 137.436 58.2057C139.167 57.504 140.912 56.8403 142.628 56.1054C143.325 55.8067 143.955 55.3611 144.614 54.9865L144.799 54.9628L144.681 54.9344Z" fill="black" fill-opacity="0.2"/>
<path d="M169.893 71.9878C168.225 72.2818 166.608 72.7085 165.076 73.4291C164.541 73.6804 164.014 73.9648 163.46 74.1782C163.128 74.3062 162.801 74.2066 162.592 73.87C162.426 73.5998 162.55 73.3437 162.73 73.1826C163.289 72.6753 163.886 72.2107 164.754 71.49C162.938 71.8503 161.44 72.0826 159.985 72.6231C158.795 73.064 157.562 73.4006 156.329 73.7183C155.813 73.851 155.263 73.7325 155.111 73.1114C154.921 72.3244 154.376 72.2391 153.755 72.3624C151.252 72.8507 148.772 73.4481 146.421 74.4674C144.785 75.1785 143.178 75.9466 141.556 76.6909C141.13 76.8853 140.722 76.8711 140.404 76.5013C140.096 76.1457 140.191 75.482 140.627 75.1359C141.888 74.1308 143.178 73.1589 144.444 72.1585C144.771 71.8977 145.074 71.5991 145.349 71.2861C145.397 71.2293 145.283 70.9069 145.197 70.8832C144.88 70.7931 144.538 70.7125 144.216 70.7457C140.75 71.0918 137.251 71.3336 133.919 72.4098C131.908 73.0593 129.936 73.8937 128.03 74.8182C125.508 76.0367 123.028 77.3547 120.724 78.9713C120.516 79.1183 120.302 79.27 120.065 79.3506C119.738 79.4644 119.383 79.4692 119.131 79.1657C118.885 78.867 118.904 78.5304 119.16 78.2554C119.795 77.5727 120.463 76.9374 121.25 76.4065C123.227 75.0742 125.261 73.8463 127.376 72.7511C127.902 72.4762 128.428 72.2012 128.936 71.893C129.035 71.8314 129.116 71.5943 129.078 71.4805C129.04 71.362 128.841 71.2198 128.718 71.2198C127.869 71.2387 127.011 71.234 126.172 71.3431C120.61 72.0684 115.068 72.8934 109.611 74.2303C108.872 74.4105 108.108 74.5195 107.355 74.6333C106.885 74.7044 106.506 74.4958 106.307 74.0834C106.136 73.7325 106.364 73.4386 106.629 73.211C107.208 72.7085 107.795 72.2201 108.369 71.7128C108.554 71.5469 108.763 71.3478 108.658 71.0633C108.564 70.7931 108.317 70.7552 108.051 70.7552C107.189 70.7552 106.373 70.9969 105.562 71.2624C102.651 72.2059 99.7452 73.1636 96.8342 74.0928C94.6486 74.7898 92.4583 75.463 90.2584 76.1125C89.7796 76.2547 89.2629 76.269 88.7603 76.2927C88.6465 76.2974 88.4663 76.122 88.4189 75.9892C88.3762 75.8612 88.4237 75.6621 88.5043 75.5388C88.5896 75.4014 88.7366 75.2876 88.8836 75.2165C93.4966 73.0214 97.7777 70.2574 102.13 67.6071C103.287 66.9055 104.306 65.9762 105.368 65.1276C105.766 64.8099 106.108 64.4069 106.165 63.8665C106.193 63.5915 106.013 63.3355 105.752 63.3449C105.335 63.3592 104.913 63.4398 104.515 63.5678C102.647 64.1699 100.883 65.0138 99.1953 66.0047C97.7303 66.8628 96.2511 67.7114 94.843 68.6596C92.2639 70.3996 89.3956 71.4047 86.423 72.168C83.5404 72.9076 80.729 73.8368 78.0171 75.079C77.031 75.5341 76.0354 76.1125 74.8738 75.9845C74.6415 75.9608 74.3476 75.8423 74.2196 75.6669C73.9778 75.3302 74.2243 75.041 74.4804 74.8087C74.6036 74.6949 74.7743 74.6238 74.8833 74.4958C75.3385 73.9743 76.4005 74.0976 76.3815 73.0782C75.6514 72.8222 75.0777 73.2869 74.4661 73.5144C72.7925 74.1355 71.2043 74.9225 69.6208 75.7569C67.6011 76.8237 65.4297 77.6059 63.3152 78.4878C62.8601 78.6774 62.3481 78.9097 61.9072 78.4404C61.6417 78.1559 62.021 77.6771 62.9265 77.2409C64.0738 76.6862 65.2354 76.1647 66.3969 75.6384C67.3925 75.1833 68.3976 74.7424 69.3885 74.2967C69.2984 73.5713 68.7911 73.7183 68.4213 73.7515C65.956 73.9648 63.5381 74.5053 61.1865 75.2165C56.1468 76.7431 51.1308 78.355 46.2855 80.4458C44.024 81.4224 41.7673 82.4038 39.4964 83.3473C39.0507 83.5322 38.5718 83.793 37.9934 83.5322C38.3301 82.8542 39.0223 82.7167 39.6054 82.4607C43.9577 80.5454 48.2862 78.5589 52.8044 77.056C57.3984 75.5294 61.9878 73.9696 66.762 73.0925C68.4071 72.7891 70.1139 72.3624 71.7638 73.211C72.2663 73.4718 72.7641 73.2157 73.2382 73.0498C74.6036 72.5804 75.9548 72.0684 77.325 71.6133C78.1309 71.3478 78.9559 71.1297 79.7808 70.9401C80.4019 70.7978 81.004 70.8832 81.2552 71.5801C81.4591 72.149 81.772 72.405 82.3931 72.2391C86.9919 70.9922 91.548 69.6789 95.6679 67.1567C98.2044 65.6064 100.784 64.1225 103.562 63.0226C104.429 62.6765 105.287 62.2972 106.236 62.2166C107.132 62.1407 107.672 62.776 107.464 63.6768C107.222 64.7104 106.658 65.5543 105.804 66.1706C104.842 66.8675 103.865 67.5502 102.851 68.1618C100.67 69.4798 98.4462 70.722 96.2701 72.0447C95.4973 72.5141 94.568 72.808 94.0181 73.6567C94.7909 74.0596 95.4167 73.6377 96.0378 73.4433C98.3893 72.7085 100.717 71.893 103.069 71.1581C104.69 70.6509 106.331 70.2194 107.971 69.769C108.379 69.6552 108.796 69.5462 109.213 69.5225C110.266 69.4609 110.792 70.1578 110.469 71.1581C110.318 71.6275 109.829 71.9783 109.967 72.5567C110.341 72.8744 110.74 72.7322 111.166 72.6611C115.101 71.9831 119.027 71.2293 122.981 70.6935C126.85 70.1673 130.752 69.8828 134.639 69.4703C135.512 69.3755 136.327 69.3518 137.038 69.9871C137.451 70.3569 137.967 70.3806 138.484 70.2953C142.419 69.6458 146.44 69.5083 150.289 68.342C151.346 68.0196 152.404 67.7114 153.475 67.4459C153.873 67.3464 154.314 67.3321 154.727 67.3843C154.926 67.408 155.149 67.6451 155.258 67.8442C155.386 68.0765 155.286 68.342 155.059 68.5032C154.495 68.9109 153.84 69.0626 153.167 69.2001C150.365 69.7643 147.89 71.0396 145.581 72.68C145.33 72.8602 144.965 72.9929 145.069 73.4291C145.397 73.6519 145.747 73.5287 146.032 73.4007C149.578 71.8646 153.38 71.3573 157.112 70.5608C159.686 70.0156 162.275 69.5272 164.839 68.9393C166.067 68.6596 167.182 68.7876 168.296 69.3186C168.694 69.5083 169.073 69.6742 169.187 70.1341C169.301 70.6129 169.585 70.8737 170.064 70.8879C171.079 70.9116 172.16 70.7409 172.482 72.1538C172.52 72.3102 173.089 72.4572 173.388 72.424C174.397 72.3102 175.398 72.0732 176.408 71.9499C179.617 71.5611 182.794 70.9827 185.918 70.1625C186.591 69.9871 187.222 69.9871 187.914 70.0298C192.508 70.319 197.083 70.1151 201.606 69.257C202.592 69.0673 203.512 68.5553 204.474 68.2329C204.844 68.1097 205.209 67.7399 205.783 68.1571C204.441 69.129 203.028 69.7975 201.478 70.191C198.491 70.9448 195.443 71.1392 192.385 71.1107C189.91 71.087 187.468 71.1866 185.079 71.9499C183.547 72.4382 181.964 72.7796 180.395 73.1446C179.996 73.2395 179.494 73.3343 179.153 73.1778C178.048 72.6753 177 72.9502 175.914 73.1968C174.094 73.6092 172.254 73.9648 170.424 74.3299C170.017 74.4105 169.585 74.4769 169.177 74.4342C168.978 74.4152 168.77 74.1545 168.637 73.9553C168.476 73.7135 168.656 73.486 168.793 73.2679C169.097 72.8175 170.021 72.9408 169.893 71.9878Z" fill="black" fill-opacity="0.2"/>
<path d="M194.846 43.1773C195.746 43.0967 196.221 42.6463 196.211 41.6933C196.192 39.9487 195.841 38.3604 194.646 36.976C193.594 35.7576 192.684 34.4159 191.702 33.1358C191.394 32.7328 191.129 32.2635 190.74 31.9505C188.09 29.8455 185.53 27.5698 182.32 26.3277C180.352 25.5644 178.423 24.7063 176.36 24.1468C174.782 23.7201 173.217 23.5021 171.6 23.4452C166.983 23.2792 162.474 24.071 157.979 24.967C155.983 25.3653 153.969 25.645 151.968 25.9911C148.715 26.5505 145.425 26.9867 142.258 27.9823C138.205 29.2577 134.274 30.8364 130.354 32.4768C125.442 34.5297 121.971 38.0807 119.288 42.5799C117.837 45.0168 117.069 47.705 115.979 50.2793C115.732 50.8577 115.998 51.3366 116.548 51.403C116.775 51.4314 117.154 51.256 117.221 51.3508C117.477 51.7016 117.112 51.9387 116.917 52.1805C116.818 52.3037 116.647 52.3796 116.5 52.4649C116.05 52.7304 115.576 52.9438 115.064 52.6688C114.523 52.3796 114.556 51.8534 114.594 51.3318C114.789 48.4019 115.618 45.7042 117.164 43.1725C118.942 40.2568 120.943 37.5307 123.337 35.1128C125.608 32.8182 128.035 30.7037 130.922 29.1723C132.269 28.4564 133.535 27.5936 134.815 26.7591C138.409 24.4171 142.372 22.8905 146.445 21.6862C148.213 21.1647 150.133 21.1505 151.987 20.9182C153.926 20.6764 155.87 20.5057 157.799 20.2118C161.075 19.714 164.351 19.2731 167.68 19.4959C168.102 19.5243 168.538 19.458 168.95 19.5149C171.97 19.9416 175 20.354 178.01 20.8471C179.271 21.0557 180.423 21.6388 181.533 22.2789C185.103 24.3365 188.113 27.0578 190.873 30.0873C191.845 31.1541 192.84 32.1971 193.859 33.2211C194.585 33.9513 195.234 34.7146 195.689 35.6485C195.912 36.1037 196.154 36.5683 196.477 36.9523C197.771 38.4837 198.52 40.2521 198.966 42.1817C199.307 43.6703 199.738 45.1306 200.549 46.4533C200.762 46.8042 200.867 47.2356 200.952 47.6433C201.066 48.1743 200.653 48.7338 200.179 48.748C199.663 48.7669 199.113 48.3829 199.032 47.9325C199.003 47.7666 198.999 47.5959 199.003 47.43C199.06 45.9413 198.411 44.6423 197.956 43.3148C197.254 43.0682 197.311 43.7178 197.055 43.9501C196.543 44.4052 195.974 44.391 195.396 44.1445C194.94 43.9548 194.846 43.5423 194.888 43.0919L194.846 43.1773ZM183.552 25.0903C181.58 23.374 179.708 22.094 177.375 21.7194C175.033 21.3449 172.672 21.0367 170.311 20.8139C167.262 20.5294 164.195 20.61 161.156 20.9372C156.856 21.4018 152.613 22.3168 148.279 22.5112C147.369 22.5538 146.44 22.8573 145.572 23.1844C142.557 24.3128 139.518 25.4127 136.692 26.9772C135.08 27.8685 133.549 28.8973 132.022 30.2106C133.023 30.386 133.71 30.0494 134.412 29.7839C136.555 28.9684 138.698 28.1577 140.826 27.3138C144.482 25.8583 148.341 25.2183 152.181 24.5498C154.433 24.1563 156.747 24.1279 159.013 23.796C162.208 23.3361 165.39 22.8431 168.618 22.6913C171.074 22.5728 173.549 22.4306 175.953 23.0232C177.759 23.4689 179.499 24.1848 181.272 24.7632C181.893 24.9623 182.486 25.37 183.552 25.0903Z" fill="black" fill-opacity="0.2"/>
<path d="M95.047 15.9254C91.5766 14.1428 88.0919 12.4076 84.4366 11.0185C83.0522 10.4922 81.701 10.1746 80.2313 10.203C78.1879 10.2457 76.154 10.0892 74.1628 9.57246C73.0866 9.29274 71.9677 9.01302 71.119 8.32083C69.3174 6.84637 67.1745 6.4102 65.0032 6.00247C64.3347 5.87921 63.6567 5.83179 63.0499 5.47147C62.8175 5.33398 62.6421 5.16331 62.6468 4.88833C62.6516 4.5612 62.9171 4.50905 63.1636 4.47112C63.3296 4.44741 63.5097 4.42845 63.6709 4.46638C66.9138 5.23443 70.2609 5.08745 73.5322 5.61371C75.4903 5.92661 77.3155 6.68518 79.0128 7.60968C81.1558 8.78071 83.403 9.3923 85.7925 9.60564C87.5799 9.76684 89.3577 9.89959 90.7042 11.3598C90.9507 11.6301 91.477 11.6538 91.88 11.7675C92.5342 11.9524 93.2027 12.0899 93.8522 12.2938C94.1699 12.3934 94.5349 12.5877 94.4923 12.9718C94.4259 13.5502 93.9565 13.5075 93.5251 13.4459C93.3591 13.4222 93.198 13.37 93.0321 13.3511C92.9657 13.3463 92.8424 13.4079 92.8377 13.4459C92.8282 13.5976 92.7997 13.8252 92.8803 13.8915C93.2738 14.2092 93.691 14.5031 94.1225 14.7686C94.5918 15.0578 94.8336 15.475 94.9806 15.9728C94.9948 15.9634 95.047 15.9254 95.047 15.9254ZM78.0125 9.19792C78.0599 9.19792 78.1452 9.21688 78.2258 9.19318C78.4629 9.1268 78.8422 9.10784 78.9038 8.96561C79.0508 8.60055 78.7521 8.33979 78.4392 8.20704C77.1164 7.65709 75.8126 7.05972 74.452 6.62828C73.5891 6.3533 72.6456 6.23004 71.7164 6.38175C71.4035 6.4339 71.3561 6.73259 71.4699 6.9649C71.7448 7.52434 72.2427 7.87043 72.8069 8.06007C74.4899 8.61477 76.1872 9.12206 78.0125 9.19792ZM88.4996 11.6964C88.6371 11.6348 88.7793 11.5732 88.9168 11.5163C88.822 11.4025 88.7462 11.2271 88.6229 11.1844C88.4048 11.1133 88.1109 11.0896 88.1156 11.4404C88.1251 11.5258 88.3669 11.6111 88.4996 11.6964Z" fill="black" fill-opacity="0.2"/>
<path d="M233.883 15.1481C233.817 15.2951 233.788 15.4847 233.679 15.589C233.295 15.9398 232.835 16.1295 232.304 16.1816C229.398 16.4661 226.71 17.5281 224.012 18.5427C221.461 19.5003 219.006 20.6382 216.744 22.1695C216.398 22.4018 215.995 22.6721 215.601 22.7053C212.463 22.9945 209.865 24.6681 207.11 25.9529C205.958 26.4886 204.83 27.0812 203.668 27.598C203.209 27.8019 202.696 27.8919 202.199 27.9915C202.104 28.0105 201.962 27.8493 201.867 27.745C201.838 27.7118 201.881 27.5696 201.933 27.5269C202.128 27.3657 202.317 27.1903 202.54 27.0765C204.133 26.2705 205.698 25.4124 207.333 24.7012C212.932 22.2549 218.555 19.8607 224.164 17.4427C226.904 16.2622 229.815 15.6269 232.636 14.7024C232.963 14.5981 233.309 14.5412 233.613 14.7546C233.741 14.8399 233.798 15.0153 233.883 15.1481Z" fill="black" fill-opacity="0.2"/>
<path d="M238.382 33.8326C236.277 35.1933 234.073 36.2221 231.716 36.9427C228.957 37.7866 226.117 38.3508 223.439 39.4555C222.884 39.6831 222.225 39.8585 221.703 39.5503C220.75 38.9814 219.902 39.318 219.015 39.6214C216.607 40.4464 214.203 41.2903 211.79 42.0962C211.027 42.3522 210.249 42.76 209.234 42.338C213.762 39.9533 218.484 38.6685 223.202 37.3742C223.609 37.2651 224.055 37.1182 224.453 37.1798C227.449 37.6349 230.128 36.3643 232.883 35.6058C234.424 35.1791 235.865 34.4016 237.358 33.7947C237.647 33.6714 237.946 33.3917 238.382 33.8326Z" fill="black" fill-opacity="0.2"/>
<path d="M185.852 36.2453C186.848 36.7573 187.62 36.0841 188.464 35.7664C188.592 35.719 188.791 35.7996 188.929 35.8707C189.19 36.0082 189.256 36.2974 189.142 36.5108C188.578 37.5348 187.976 38.5352 187.383 39.5497C187.62 40.0144 187.919 39.7489 188.17 39.5924C188.806 39.1942 189.375 38.6537 190.209 38.7106L190.147 38.6442C190.01 38.8481 189.915 39.1136 189.725 39.2416C188.118 40.3652 186.781 41.7638 185.501 43.2288C185.278 43.4801 185.046 43.7313 184.79 43.9447C184.439 44.2386 183.989 44.305 183.61 44.0822C183.093 43.7835 183.349 43.352 183.586 43.0107C184.506 41.6974 185.454 40.4031 186.378 39.0899C186.521 38.886 186.606 38.5968 186.326 38.4309C186.231 38.374 185.99 38.4451 185.88 38.5352C185.24 39.0851 184.638 39.6778 183.994 40.2182C183.548 40.5975 183.079 40.9626 182.576 41.2565C182.192 41.4841 181.727 41.4367 181.391 41.1332C181.016 40.7966 181.111 40.3699 181.362 39.9954C181.595 39.6446 181.832 39.2795 182.135 38.9951C183.363 37.8382 184.615 36.7099 185.871 35.5815C186.032 35.4393 186.312 35.2544 186.435 35.6052C186.521 35.8565 186.331 36.0841 186.099 36.2168C186.032 36.2547 185.933 36.2358 185.852 36.25C185.828 36.4776 185.838 36.7004 185.776 36.909C185.71 37.1461 185.743 37.2172 185.933 37.1129C185.98 37.0892 186.004 36.9706 185.994 36.9043C185.952 36.6909 185.899 36.4681 185.852 36.2453Z" fill="black" fill-opacity="0.2"/>
<path d="M91.4865 28.2757C91.0361 28.3563 90.7042 28.29 90.4482 28.0387C89.0069 26.6116 87.2101 26.0048 85.271 25.5734C83.6306 25.2083 81.9997 24.72 80.5537 23.7481C79.5675 23.0843 78.406 22.7525 77.254 22.468C75.2675 21.9749 73.4042 21.1642 71.56 20.3061C71.3324 20.197 71.0906 20.0406 71.157 19.7419C71.2518 19.2963 71.65 19.32 71.9535 19.3863C73.0249 19.6234 74.1012 19.8225 75.0683 20.4104C76.3152 21.169 77.6949 21.5909 79.1409 21.7426C79.8283 21.8137 80.5063 21.8564 81.023 22.3637C82.7725 24.0894 85.0482 24.6109 87.3191 24.7152C89.3435 24.8053 90.5003 26.0854 91.8705 27.1521C92.0032 27.2564 92.0175 27.6404 91.9416 27.8348C91.861 28.0387 91.605 28.1714 91.4865 28.2757Z" fill="black" fill-opacity="0.2"/>
<path d="M191.413 23.4401C191.441 22.8617 191.901 22.5819 192.261 22.2359C194.343 20.2304 196.429 18.2297 198.515 16.2337C199.487 15.3045 200.35 14.252 201.843 14.0529C202.298 13.9912 202.715 13.555 203.128 13.2564C205.47 11.5543 207.893 9.97558 210.571 8.85195C211.818 8.33044 212.506 7.22579 213.463 6.40085C213.572 6.31077 213.805 6.23017 213.904 6.28706C214.198 6.453 214.094 6.74694 213.961 6.94606C213.44 7.71411 212.885 8.46793 212.34 9.22175C212.027 9.65319 211.619 9.89024 211.064 9.95661C209.77 10.1178 208.68 10.7721 207.594 11.4595C205.361 12.8676 203.18 14.3326 201.25 16.1484C200.881 16.4945 200.478 16.9591 200.032 17.035C198.648 17.272 197.856 18.2629 196.946 19.1447C195.969 20.0882 194.973 21.0174 193.959 21.9182C193.195 22.5962 192.404 23.2409 191.346 23.4306L191.413 23.4401Z" fill="black" fill-opacity="0.2"/>
<path d="M128.912 16.8453C128.751 16.7978 128.576 16.7789 128.433 16.6935C126.461 15.5367 124.484 14.3847 122.521 13.2042C121.711 12.7158 120.995 12.1327 120.881 11.0754C120.8 10.3121 120.151 9.96129 119.625 9.55357C118.548 8.72389 117.477 7.92266 116.837 6.64733C116.448 5.8698 115.647 5.46681 114.874 5.09701C113.575 4.47594 112.252 3.89753 110.982 3.21956C110.015 2.70753 109.062 2.12913 108.422 1.18567C108.213 0.877504 108.184 0.521929 108.459 0.261173C108.621 0.104719 108.9 0.0051565 109.128 0.000415478C109.474 -0.00906656 109.872 0.142645 109.754 0.569336C109.545 1.32316 109.991 1.65503 110.503 1.9869C112.015 2.96355 113.694 3.61782 115.419 3.95917C116.59 4.19148 117.311 5.01167 118.302 5.4431C118.634 5.59008 118.672 6.0547 118.449 6.32968C118.046 6.82275 118.098 7.2115 118.506 7.65716C119.193 8.41098 119.895 9.12688 120.853 9.56305C121.568 9.89018 122.142 10.3738 122.104 11.2983C122.076 11.9999 122.602 12.3508 123.109 12.6542C124.854 13.6972 126.618 14.7118 128.372 15.7453C128.661 15.916 128.941 16.1057 129.187 16.3285C129.249 16.3854 129.173 16.6177 129.126 16.7552C129.111 16.8073 128.988 16.8216 128.912 16.8453Z" fill="black" fill-opacity="0.2"/>
<path d="M85.8636 35.5818C83.6116 36.3782 81.4355 36.9424 79.0934 35.6861C77.6853 34.9275 75.9833 34.8801 74.3619 34.9844C73.096 35.065 71.8349 35.2499 70.5738 35.3589C70.46 35.3684 70.2941 35.2119 70.2087 35.0887C70.0855 34.918 70.1708 34.7853 70.3415 34.662C70.7634 34.3443 71.247 34.2543 71.7496 34.1357C74.4709 33.5052 77.1211 33.8655 79.7856 34.534C80.8523 34.7995 81.8242 35.3731 82.9573 35.4063C83.9245 35.43 84.8917 35.5201 85.8636 35.5818Z" fill="black" fill-opacity="0.2"/>
<path d="M193.585 40.5503C193.566 40.6309 193.575 40.7495 193.523 40.7921C192.02 41.9869 190.555 43.2195 189.232 44.6181C189.019 44.8457 188.673 45.0069 188.365 45.0685C188.166 45.1112 187.881 44.969 187.701 44.822C187.492 44.6608 187.478 44.3763 187.616 44.144C187.786 43.8596 187.976 43.5751 188.199 43.3286C189.147 42.2524 189.996 41.1145 190.726 39.8819C190.892 39.5974 191.124 39.3461 191.37 39.1186C191.465 39.0285 191.698 38.9906 191.816 39.0427C191.93 39.0949 192.063 39.3224 192.034 39.4315C191.897 39.9103 191.707 40.3702 191.494 40.9344C192.338 41.3279 192.945 40.5835 193.641 40.593L193.585 40.5503Z" fill="black" fill-opacity="0.2"/>
<path d="M169.14 11.4072C169.149 8.03158 170.429 5.48091 171.88 2.99662C171.999 2.79276 172.212 2.5889 172.506 2.67423C172.914 2.79276 172.923 3.15307 172.904 3.47072C172.89 3.71251 172.824 3.98275 172.686 4.17714C171.249 6.22526 170.581 8.54835 170.24 10.99C170.197 11.3124 170.064 11.63 169.917 11.924C169.87 12.0235 169.652 12.052 169.505 12.0804C169.448 12.0899 169.334 12.014 169.31 11.9524C169.206 11.649 169.116 11.3313 169.14 11.4072Z" fill="black" fill-opacity="0.2"/>
<path d="M180.442 39.185C180.267 39.9246 179.721 40.3133 179.067 40.5409C178.873 40.6073 178.565 40.503 178.37 40.3844C178.138 40.2422 178.091 39.9577 178.247 39.716C178.569 39.2229 178.887 38.7156 179.271 38.2652C181.253 35.9326 183.476 33.8371 185.757 31.8032C185.871 31.7036 186.065 31.6989 186.221 31.6467L186.155 31.5898C185.899 32.4385 185.212 32.9553 184.638 33.5574C183.249 35.0176 181.86 36.4731 180.485 37.9475C180.096 38.3648 180.025 38.8294 180.508 39.2561L180.442 39.185Z" fill="black" fill-opacity="0.2"/>
<path d="M218.508 33.0882C219.262 32.2158 219.935 31.9456 220.561 31.8745C222.315 31.6706 224.003 31.2771 225.671 30.7224C225.766 30.6892 225.999 30.8409 226.046 30.9547C226.089 31.0638 226.013 31.3293 225.923 31.3672C225.088 31.7465 224.263 32.2253 223.386 32.415C221.926 32.7184 220.428 32.8322 218.508 33.0882Z" fill="black" fill-opacity="0.2"/>
<path d="M194.902 43.101C194.082 43.8691 193.409 44.7224 193.243 45.8887C193.21 46.1258 193.091 46.4008 192.921 46.5525C192.755 46.6947 192.456 46.7706 192.238 46.7279C191.987 46.6805 191.83 46.396 191.896 46.14C191.982 45.8176 192.124 45.4952 192.314 45.2202C192.939 44.31 193.598 43.4281 194.239 42.5226C194.447 42.2239 194.722 42.058 195.063 41.9964C195.054 41.9869 195.007 41.9395 195.007 41.9395C194.765 42.3282 194.789 42.7502 194.845 43.1769L194.902 43.101Z" fill="black" fill-opacity="0.2"/>
<path d="M179.433 33.0547C179.485 33.5193 179.172 33.8227 178.958 34.1831C178.461 35.0317 177.612 35.6717 177.664 36.857C177.688 37.388 177.038 37.8194 176.417 37.9379C176.318 37.9569 176.109 37.8004 176.076 37.6867C176.033 37.5444 176.081 37.3406 176.161 37.2078C177.119 35.7144 178.053 34.2068 179.494 33.1068C179.494 33.1116 179.433 33.0547 179.433 33.0547Z" fill="black" fill-opacity="0.2"/>
<path d="M175.398 32.0118C175.639 31.0351 176.213 30.2529 176.867 29.518C177.351 28.968 177.816 28.4039 178.29 27.8444L178.223 27.8018C178.242 27.8824 178.294 27.9724 178.275 28.0388C177.863 29.39 176.649 31.0067 175.345 31.9644L175.398 32.0118Z" fill="black" fill-opacity="0.2"/>
<path d="M172.003 24.6157C172.193 25.0045 172.34 25.3932 172.018 25.782C171.638 26.2466 171.169 26.5927 170.6 26.7681C170.467 26.8108 170.244 26.7634 170.15 26.6686C170.088 26.6069 170.126 26.332 170.211 26.2514C170.519 25.9716 170.885 25.7536 171.193 25.4786C171.496 25.2036 171.757 24.8812 172.037 24.5825L172.003 24.6157Z" fill="black" fill-opacity="0.2"/>
<path d="M175.341 31.96C175.488 32.6 175.047 33.0741 174.858 33.6146C174.426 34.8567 174.289 35.089 174.104 34.7714C173.786 34.2309 174.09 33.809 174.336 33.387C174.63 32.8845 174.853 32.325 175.393 32.0121C175.398 32.0121 175.341 31.96 175.341 31.96Z" fill="black" fill-opacity="0.2"/>
<path d="M181.694 29.8829C181.727 30.1247 181.874 30.4376 181.775 30.594C181.149 31.5517 180.613 32.6137 179.437 33.0546C179.437 33.0546 179.499 33.1115 179.494 33.1115C179.546 32.5663 179.949 32.2392 180.276 31.8646C180.817 31.2388 181.504 30.7173 181.742 29.8687C181.737 29.8687 181.694 29.8829 181.694 29.8829Z" fill="black" fill-opacity="0.2"/>
<path d="M175.616 29.2004C175.502 29.262 175.379 29.3947 175.265 29.3853C174.744 29.3378 174.355 28.9206 174.525 28.6267C174.563 28.5603 174.649 28.4797 174.72 28.475C175.104 28.4465 175.63 28.8732 175.616 29.2004Z" fill="black" fill-opacity="0.2"/>
<path d="M96.9765 17.0253C96.3412 16.6508 95.7059 16.2762 95.0564 15.9159C95.0422 15.9254 94.9901 15.9681 94.9806 15.9775C96.3318 15.75 96.5261 15.8495 96.9576 17.0206L96.9765 17.0253Z" fill="black" fill-opacity="0.2"/>
<path d="M193.636 40.5975C195.22 40.2894 195.253 40.3225 194.992 41.9392C195.002 41.9487 195.049 41.9961 195.059 42.0056C194.774 41.3324 194.466 40.6639 193.589 40.5548C193.584 40.5501 193.636 40.5975 193.636 40.5975Z" fill="black" fill-opacity="0.2"/>
<path d="M81.5494 19.6853C81.4735 19.6616 81.3977 19.6379 81.3265 19.6189C81.4119 19.5478 81.502 19.415 81.5826 19.415C81.7201 19.4198 81.8575 19.5099 81.995 19.562C81.8481 19.5999 81.6963 19.6426 81.5494 19.6853Z" fill="black" fill-opacity="0.2"/>
<path d="M210.111 36.729C210.007 36.8523 209.917 36.985 209.798 37.0893C209.746 37.132 209.609 37.1557 209.571 37.1178C209.419 36.9898 209.462 36.838 209.685 36.7859C209.836 36.748 210.002 36.7859 210.164 36.7906L210.111 36.729Z" fill="black" fill-opacity="0.2"/>
<path d="M178.29 27.8444C178.688 27.4746 179.091 27.1095 179.489 26.7397L179.39 26.7872C179.309 27.4699 179.063 27.9629 178.228 27.8065C178.224 27.797 178.29 27.8444 178.29 27.8444Z" fill="black" fill-opacity="0.2"/>
<path d="M186.217 31.6467C186.231 31.495 186.25 31.3433 186.264 31.1963C186.658 31.457 186.259 31.4808 186.15 31.5898C186.155 31.5898 186.217 31.6467 186.217 31.6467Z" fill="black" fill-opacity="0.2"/>
<path d="M183.23 29.0198C183.249 28.8966 183.268 28.7781 183.292 28.6548C183.296 28.7069 183.325 28.7686 183.306 28.8065C183.273 28.8681 183.216 28.9203 183.164 28.9724L183.23 29.0198Z" fill="black" fill-opacity="0.2"/>
<path d="M79.9089 32.3485L79.9136 32.1968L80.089 32.2726L79.9089 32.3485Z" fill="black" fill-opacity="0.2"/>
<path d="M96.9622 17.0208C97.1186 16.9971 97.2798 16.9734 97.4363 16.9497C97.2845 16.9734 97.1376 17.0019 96.9811 17.0303C96.9764 17.0256 96.9622 17.0208 96.9622 17.0208Z" fill="black" fill-opacity="0.2"/>
<path d="M191.337 23.4355L191.242 23.4023C191.242 23.4023 191.399 23.4355 191.408 23.4403C191.413 23.4403 191.337 23.4355 191.337 23.4355Z" fill="black" fill-opacity="0.2"/>
<path d="M190.199 38.7111C190.232 38.6495 190.266 38.5831 190.294 38.5215C190.422 38.6163 190.37 38.659 190.138 38.6495C190.142 38.6495 190.199 38.7111 190.199 38.7111Z" fill="black" fill-opacity="0.2"/>
<path d="M183.164 28.9731C182.988 29.1296 182.813 29.286 182.633 29.4378C182.628 29.4378 182.69 29.4899 182.69 29.4899C182.87 29.3335 183.045 29.1723 183.225 29.0158C183.23 29.0206 183.164 28.9731 183.164 28.9731Z" fill="black" fill-opacity="0.2"/>
<path d="M181.736 29.8689C182.049 29.7409 182.367 29.6177 182.685 29.4897C182.689 29.4897 182.628 29.4375 182.628 29.4375C182.324 29.5845 182.021 29.7362 181.703 29.8832C181.694 29.8832 181.736 29.8689 181.736 29.8689Z" fill="black" fill-opacity="0.2"/>
<path d="M179.494 26.7397C179.475 26.7824 179.461 26.8203 179.442 26.863C179.584 26.8109 179.565 26.7872 179.39 26.7919C179.394 26.7872 179.494 26.7397 179.494 26.7397Z" fill="black" fill-opacity="0.2"/>
<path d="M172.036 24.5825L172.169 24.6916C172.169 24.6916 172.013 24.611 172.008 24.6157C172.003 24.6157 172.036 24.5825 172.036 24.5825Z" fill="black" fill-opacity="0.2"/>
<path d="M210.652 36.032C210.851 35.8565 210.832 35.8328 210.6 35.9561C210.6 35.9656 210.652 36.032 210.652 36.032Z" fill="black" fill-opacity="0.2"/>
<path d="M210.159 36.7954C210.325 36.5441 210.491 36.2928 210.657 36.0368C210.657 36.032 210.604 35.9657 210.604 35.9609C210.439 36.2122 210.277 36.4682 210.111 36.729L210.159 36.7954Z" fill="black" fill-opacity="0.2"/>
</svg>
