<svg width="420" height="139" viewBox="0 0 420 139" fill="none" xmlns="http://www.w3.org/2000/svg">
<path d="M413.364 3.2778C413.282 1.62302 414.556 0.214442 416.211 0.13166C417.866 0.0488771 419.274 1.32324 419.357 2.97802L413.364 3.2778ZM313.99 175.615L314.802 178.503L313.99 175.615ZM419.357 2.97802C420.557 26.9637 416.81 64.4058 401.647 99.0488C386.458 133.752 359.69 165.875 314.802 178.503L313.177 172.727C355.857 160.721 381.456 130.217 396.151 96.643C410.872 63.0088 414.527 26.5239 413.364 3.2778L419.357 2.97802ZM314.802 178.503C206.932 208.847 171.95 299.205 165.049 351.493L159.101 350.708C166.178 297.087 202.129 203.965 313.177 172.727L314.802 178.503ZM165.049 351.493C161.559 377.937 154.026 438.489 130.813 494.286C107.623 550.028 68.3902 601.901 1.08822 609.387L0.42497 603.424C64.4523 596.302 102.384 547.001 125.274 491.981C148.14 437.017 155.602 377.22 159.101 350.708L165.049 351.493Z" fill="url(#paint0_linear_1_3076)"/>
<defs>
<linearGradient id="paint0_linear_1_3076" x1="252.798" y1="332.72" x2="179.506" y2="286.409" gradientUnits="userSpaceOnUse">
<stop stop-color="#70E1F5"/>
<stop offset="1" stop-color="#FFD194"/>
</linearGradient>
</defs>
</svg>
