<svg width="174" height="233" viewBox="0 0 174 233" fill="none" xmlns="http://www.w3.org/2000/svg">
<path d="M12.0009 93.4126C11.7023 94.6168 11.4131 95.8258 11.0954 97.0252C10.9152 97.6985 11.3135 98.1252 11.7023 98.5471C12.0199 98.8932 12.3186 98.5234 12.6125 98.4476C12.7453 98.4096 12.9207 98.2769 12.8923 98.073C12.7785 97.1817 12.897 96.3188 13.0866 95.4417C13.1862 94.9913 13.5939 94.8633 13.7314 94.4509C13.9685 93.7682 14.4094 93.1566 14.8598 92.5545C14.4236 93.9531 14.3098 95.3943 14.1202 96.8166C13.959 98.0066 13.9305 99.2251 14.2387 100.406C14.3904 100.993 14.9499 101.065 15.4334 101.069C15.9265 101.074 16.2347 100.775 16.3105 100.235C16.3342 100.045 16.3579 99.9694 16.2015 99.8319C15.8364 99.5095 15.8222 99.1682 16.1161 98.7273C16.3864 98.3195 15.9644 97.7174 16.5476 97.1153C16.467 98.1109 16.8415 98.8363 17.0359 99.6138C17.2161 100.316 18.297 101.046 18.8944 100.861C19.1646 100.775 19.4823 100.709 19.4301 100.339C19.3827 100.003 19.6577 99.6186 19.1741 99.3246C18.7664 99.0781 18.7616 98.6467 19.2832 98.4997C19.909 98.329 20.1128 97.8455 19.8947 97.4235C19.1646 95.9965 19.9042 94.7448 20.274 93.4647C20.568 92.4359 20.9615 91.4261 21.5257 90.5016C21.6916 90.2314 21.7959 90.0607 22.2273 90.1508C22.9954 90.312 23.6876 89.9896 24.3892 89.2215C24.2612 90.44 23.8725 91.3503 23.5169 92.2368C23.0285 93.4742 22.6682 94.7401 22.3459 96.0201C22.2842 96.2572 22.3364 96.5227 22.3364 96.7787C22.3316 97.3713 22.7204 97.7554 23.185 97.9166C23.6544 98.0778 24.0242 97.7127 24.2992 97.3287C24.4224 97.1533 24.541 96.9731 24.6595 96.7882C25.0151 96.9352 24.8064 97.4519 25.309 97.4899C26.2193 97.5562 26.8261 96.9447 26.333 96.1861C25.9538 95.6029 26.0676 95.072 26.1908 94.6358C26.6886 92.91 26.7029 91.099 27.2007 89.3732C27.7127 87.6049 28.4191 86.0308 30.325 85.3671C30.5336 85.296 30.7422 85.2106 31.0361 85.277C30.6379 87.0549 30.2965 88.8375 29.8224 90.587C29.4289 92.0377 29.1492 93.4932 29.116 94.9914C29.0971 95.8068 29.1065 96.6223 30.1828 96.8641C30.4056 96.9162 30.562 97.2433 30.7517 97.4425C31.3253 98.0446 32.0507 98.0635 32.6339 97.5088C32.8282 97.3239 32.7239 97.1627 32.6528 96.9778C32.0602 95.3943 32.6671 93.9578 33.1269 92.4691C33.4398 91.4593 33.9613 90.5443 34.2695 89.5582C34.4971 88.828 34.938 88.2449 35.3315 87.5764C35.1987 88.3966 35.0992 89.2263 34.9238 90.0417C34.5919 91.5731 34.516 93.0997 34.5303 94.6737C34.5397 95.5129 34.2979 96.4468 34.0893 97.3239C33.9139 98.054 33.8665 98.7936 34.004 99.5332C34.0893 100.003 34.3264 100.363 34.8953 100.353C35.4405 100.344 35.8151 100.121 35.7582 99.5475C35.5543 97.4045 36.2513 95.3469 36.3413 93.2277C36.4267 91.3123 37.1046 89.4728 37.3796 87.5764C37.4981 86.7752 37.8158 85.9882 37.6309 85.149C37.5788 84.9119 37.6024 84.6133 37.8869 84.5232C38.1429 84.4378 38.4795 84.3288 38.6834 84.4284C39.0153 84.5896 38.8019 84.9831 38.6976 85.1822C37.9154 86.7088 37.8442 88.4203 37.4744 90.037C37.2327 91.0942 36.8202 92.1515 36.9198 93.3652C36.9814 94.1332 36.6637 95.1194 36.3508 95.968C36.0806 96.7076 36.5642 97.1011 36.9956 97.5942C37.4365 98.0967 37.8063 97.7554 38.2093 97.6795C38.6739 97.5894 38.8351 97.3476 38.745 96.8356C38.6597 96.3568 38.4938 95.6598 39.4467 95.8779C40.0725 94.925 41.381 94.8302 41.9784 93.8393C43.23 91.7532 44.6713 89.7857 45.8423 87.6475C46.0699 87.2303 46.0984 86.7657 46.3638 86.3485C47.0797 85.2296 48.3029 84.7128 49.2037 83.7978C49.1184 84.7128 48.5115 85.3197 48.0422 86.0071C47.1698 87.2825 46.0462 88.3919 45.4536 89.8521C45.3303 90.1508 45.0695 90.2456 44.8752 90.4258C44.1308 91.1179 44.1403 92.0235 44.1119 92.9148C44.1024 93.2514 44.4248 93.4173 44.6808 93.46C45.1312 93.5359 45.5911 93.5264 45.9941 93.2087C46.5345 92.782 46.8996 92.2273 47.2172 91.5114C47.35 91.7295 47.4258 91.8149 47.459 91.9144C47.5775 92.2842 47.1698 92.91 47.9331 92.9575C48.7154 93.0096 49.5071 92.9622 50.0097 92.2368C50.5122 91.5162 51.0954 90.9567 51.9677 90.677C52.4561 90.5206 52.9492 90.2219 53.3142 89.8616C54.7839 88.4203 56.6519 87.913 58.5672 87.4721C60.0891 87.1213 61.6442 86.979 63.185 86.8178C63.8582 86.7467 64.6405 86.9601 65.1004 87.638C65.2568 87.8703 65.3422 88.1785 64.9344 88.1785C63.953 88.188 62.9811 88.3539 62.014 88.444C61.1606 88.5246 60.2408 88.8517 59.3969 89.2168C58.8232 89.4633 58.2875 89.653 57.6001 89.5629C56.8937 89.4681 56.301 90.0891 55.6657 90.3926C54.8692 90.7766 54.0917 91.2222 53.3095 91.6347C52.3897 92.123 51.5126 92.6066 50.4554 92.6445C50.3273 92.6493 50.2278 92.7109 50.223 92.8295C50.1614 93.7445 49.3649 93.8345 48.7675 94.0052C47.4543 94.3798 46.4208 95.1952 45.3066 95.9016C44.3063 96.5369 43.2869 97.1533 42.2392 97.7269C41.0492 98.3764 39.5937 98.6609 38.7782 99.9599C38.5838 100.268 38.0813 100.462 37.6878 100.543C36.4599 100.794 35.4832 101.51 34.4497 102.146C33.3355 102.828 32.2641 103.558 31.2685 104.402C31.2068 104.454 31.1357 104.53 31.0599 104.54C29.519 104.748 28.7462 106.052 27.6226 106.863C27.0964 107.242 26.6033 107.702 25.9775 107.991C25.3469 108.28 24.6974 108.546 24.2185 109.205C23.953 109.565 23.2608 109.745 22.7962 110.068C22.3601 110.371 21.6679 110.428 21.9429 111.281C22.0187 111.523 21.6537 111.794 21.464 112.04C20.8619 112.818 19.9801 113.282 19.3163 113.989C19.122 114.197 18.828 114.368 19.2642 114.624C19.487 114.757 19.3495 114.956 19.2547 115.055C18.7664 115.539 19.0366 115.771 19.506 116.008C19.9611 116.241 19.9421 116.463 19.506 116.781C17.7945 118.023 16.0403 119.223 14.471 120.645C13.9779 121.091 13.6129 121.66 12.9349 121.882C12.7974 121.925 12.6125 122.134 12.6979 122.285C13.2573 123.276 12.2807 123.727 11.9203 124.324C11.5031 125.016 10.8062 125.533 10.4933 126.334C10.3748 126.642 10.1472 126.898 9.87695 127.121C9.3744 127.524 9.24167 128.482 9.58775 129.003C9.81532 129.35 10.1377 129.387 10.536 129.302C11.9298 129.003 12.9776 128.117 14.0633 127.292C14.2482 127.15 14.4141 126.974 14.6133 126.789C14.4995 127.728 13.6982 128.169 13.2715 128.852C12.6031 129.918 11.7829 130.89 11.0196 131.895C10.5407 132.526 10.5929 133.346 11.195 133.915C11.3941 134.105 11.5885 134.275 11.3135 134.512C10.4743 135.233 10.3131 136.466 9.34596 137.092C9.17529 137.205 9.13263 137.405 9.14211 137.618C9.1658 138.045 8.95247 138.338 8.668 138.642C8.42621 138.903 7.99951 139.149 8.09908 139.576C8.20337 140.003 7.71031 140.662 8.57793 140.842C9.26537 140.989 9.80586 141.112 10.37 140.406C11.0812 139.514 12.0057 138.798 12.8448 138.011C13.4232 137.466 13.7361 136.75 14.1154 136.082C14.2292 135.883 14.3809 135.731 14.5089 135.556C14.599 135.432 14.6844 135.318 14.8408 135.399C14.983 135.47 15.0352 135.636 14.9688 135.759C14.7081 136.257 14.9404 136.527 15.3766 136.698C15.5235 136.755 15.6373 136.831 15.6278 136.987C15.5804 137.841 16.2916 138.5 16.2299 139.363C16.211 139.614 16.4338 139.566 16.5903 139.604C17.3536 139.789 17.804 139.291 18.2164 138.808C18.5388 138.429 18.7711 138.03 19.3258 137.879C19.7336 137.765 19.909 137.253 19.9848 136.859C20.1602 135.944 20.6865 135.157 20.8335 134.233C20.8714 133.986 21.0847 133.707 21.2981 133.564C21.4545 133.455 21.4545 133.043 21.7627 133.237C21.9381 133.346 22.1515 133.484 22.142 133.759C22.123 134.328 22.4738 134.759 22.948 134.778C23.5453 134.802 24.0763 134.422 24.2992 133.816C24.6216 132.924 24.8965 132.019 25.1905 131.118C25.4275 130.402 25.5887 129.677 26.5132 129.449C26.9352 129.345 27.1864 128.899 27.2812 128.416C27.6795 126.42 28.1062 124.433 28.4333 122.428C28.8553 119.825 29.6897 117.331 30.837 114.956C31.1452 114.32 31.0788 113.519 31.7236 112.965C31.8705 113.349 31.7757 113.666 31.7046 113.979C31.3064 115.724 31.2353 117.516 30.9271 119.27C30.6521 120.83 30.3534 122.39 30.0453 123.94C29.922 124.552 30.3534 125.026 30.3866 125.623C30.4198 126.173 31.7852 126.04 32.0839 125.396C32.2735 124.988 32.5296 124.599 32.5201 124.077C32.5153 123.679 32.6718 123.281 33.1601 123.006C34.0514 122.503 34.0657 121.446 34.2885 120.593C35.0139 117.791 35.8198 115.013 36.896 112.329C37.5693 110.656 38.2757 108.968 39.5321 107.612C39.6695 107.46 39.7312 107.133 40.0156 107.214C40.3475 107.309 40.2195 107.621 40.2385 107.858C40.3001 108.778 39.8687 109.603 39.7501 110.485C39.4182 112.927 38.3136 115.122 37.6214 117.445C37.3038 118.512 37.9438 119.403 38.9821 119.322C39.3519 119.294 39.5842 119.118 39.7122 118.843C40.1105 117.981 40.4423 117.113 40.594 116.146C40.7932 114.918 41.1677 113.695 42.0495 112.737C42.2344 112.538 42.4288 112.377 42.5663 112.125C42.9029 111.519 43.6378 111.291 44.3015 111.547C44.5149 111.628 44.6097 111.775 44.6144 111.993C44.6286 112.4 44.6666 112.851 45.1596 112.903C45.7428 112.969 46.2975 112.78 46.6151 112.244C46.8427 111.865 46.9754 111.428 47.1461 111.016C47.9995 108.987 48.7438 106.906 49.7347 104.947C50.626 103.198 51.2376 101.297 52.4798 99.7276C52.6125 99.5617 52.6504 99.2061 52.9112 99.3341C53.1672 99.4574 53.0392 99.7561 52.9254 99.9836C52.2901 101.278 51.6785 102.582 51.0148 103.862C50.3605 105.118 49.8248 106.427 49.2701 107.726C49.0046 108.356 48.5826 108.92 48.668 109.655C48.7154 110.054 48.6633 110.494 49.2179 110.641C49.7347 110.779 50.242 110.722 50.5644 110.343C50.9057 109.94 51.1902 109.475 51.3704 108.935C52.3186 106.109 53.281 103.288 54.9072 100.752C55.1585 100.358 55.3149 99.9078 55.5235 99.4574C55.789 99.5996 55.6894 99.7845 55.6325 99.9647C55.1727 101.378 54.6369 102.767 54.1818 104.184C53.8167 105.308 53.665 106.479 53.2952 107.598C53.1103 108.157 53.4943 108.745 53.6745 109.281C53.8357 109.755 55.021 109.527 55.2912 108.939C55.5567 108.366 55.808 107.74 55.8648 107.119C56.0687 105 56.9268 103.113 57.8561 101.254C58.1548 100.662 58.3539 99.9931 58.8801 99.5332C59.6624 100.785 60.3356 101.098 61.7722 100.534C62.4122 100.282 62.9479 100.425 63.3889 100.657C64.6026 101.297 65.7499 101.188 66.8498 100.529C67.8359 99.9362 68.9311 99.5901 69.9599 99.1066C71.4533 98.4049 72.558 97.3002 73.5109 96.0059C73.6721 95.7878 73.7812 95.5318 74.0798 95.712C74.2885 95.84 74.3122 96.0723 74.1842 96.3046C74.1178 96.4231 74.0419 96.5749 74.0609 96.6981C74.4165 98.7415 72.8424 99.2393 71.4865 99.8699C70.9318 100.126 70.4719 100.51 69.9457 100.794C69.4763 101.05 69.2014 101.686 69.3815 102.013C70.1021 103.331 68.9548 103.833 68.329 104.383C67.3429 105.241 66.5559 106.294 65.4986 107.076C64.759 107.621 64.0479 108.2 63.1708 108.513C62.4976 108.755 61.9334 109.186 61.3976 109.627C60.8761 110.054 61.3313 110.66 61.3028 111.177C61.2838 111.495 61.7674 111.547 62.1325 111.523C62.9669 111.471 63.6354 111.063 64.4034 110.442C64.3323 111.267 63.9151 111.737 63.5643 112.192C63.0238 112.893 62.5307 113.605 62.0898 114.373C61.739 114.989 61.0278 115.326 60.6106 115.947C59.6245 117.407 57.9082 118.161 56.9126 119.63C56.5855 120.114 56.1967 120.555 55.8554 121.029C55.552 121.46 55.3339 122.015 55.7606 122.399C56.2252 122.816 56.87 123.096 57.5052 122.674C57.9035 122.409 58.2733 122.124 58.5767 121.702C58.9939 121.133 59.615 120.716 60.1507 120.233C60.6865 119.754 61.227 119.28 61.8528 118.725C61.7674 119.327 61.6062 119.792 61.3218 120.242C60.6675 121.266 59.9137 122.252 59.4396 123.352C58.8659 124.68 57.9414 125.78 57.3346 127.06C56.7325 128.321 55.8174 129.335 55.0399 130.454C54.343 131.455 54.4805 132.398 55.3623 132.72C55.8506 132.896 56.3769 132.896 56.7704 132.441C57.5479 131.526 58.4724 130.753 59.2689 129.843C59.8331 129.198 60.6011 128.563 61.4972 127.998C61.3644 128.961 60.7908 129.62 60.5205 130.402C60.2313 131.236 59.7098 132.005 59.3922 132.863C58.847 134.342 57.913 135.617 57.1639 136.992C56.6234 137.988 55.8743 138.893 55.3765 139.865C54.4331 141.7 53.2099 143.402 52.5414 145.374C52.3613 145.905 52.1906 146.479 52.8591 146.839C53.6176 147.252 54.0965 147.081 54.6085 146.436C55.5851 145.199 56.6376 144.032 57.4294 142.653C58.0884 141.501 58.8754 140.425 59.6482 139.249C59.634 140.064 59.2689 140.766 58.9086 141.302C58.169 142.402 57.9177 143.71 57.1355 144.81C56.742 145.365 56.3627 146.142 56.1209 146.882C55.8364 147.754 55.3291 148.536 54.9593 149.371C54.6654 150.035 54.4852 150.765 54.3383 151.481C54.0775 152.727 53.2194 153.733 53.025 155.032C52.9302 155.672 53.0107 155.985 53.5228 156.312C54.1154 156.686 54.727 156.478 55.0447 156.117C56.4006 154.595 57.491 152.884 58.5341 151.125C59.871 148.878 60.7007 146.375 62.2273 144.175C62.5497 144.582 62.2842 144.957 62.1846 145.275C61.8954 146.156 61.9666 147.09 61.5399 147.972C60.677 149.76 60.4399 151.751 60.0085 153.676C59.4823 156.027 59.3874 158.478 58.4345 160.74C58.2259 161.228 58.7332 161.939 59.3448 162.11C59.909 162.266 60.53 161.878 60.6722 161.261C60.9899 159.896 61.0658 158.483 61.355 157.127C61.5683 156.117 61.7437 155.036 62.2842 154.05C62.6682 154.605 62.2842 155.15 62.27 155.638C62.2273 157.113 62.0756 158.597 61.9666 160.076C61.8812 161.223 61.8907 162.38 61.7342 163.532C61.5256 165.068 61.4972 166.623 61.3976 168.174C61.3123 169.539 61.2459 170.905 61.1463 172.27C61.0895 173.047 61.0041 173.801 61.1369 174.603C61.2459 175.262 60.8145 175.93 60.7908 176.641C60.7623 177.49 61.0468 177.945 61.9997 178.011C62.673 178.059 63.1044 177.551 63.1281 176.968C63.204 174.972 63.8393 173.085 64.1474 171.132C64.522 168.766 64.6974 166.386 64.9202 164.006C64.9249 163.968 64.9771 163.935 65.0956 163.793C65.3753 164.656 65.3516 165.495 65.5365 166.292C65.7594 167.254 65.8494 168.259 65.4749 169.24C65.3611 169.539 66.1718 170.26 66.627 170.326C67.248 170.416 67.4661 170.056 67.4282 169.539C67.2006 166.453 67.7838 163.357 67.1438 160.261C66.7028 158.132 66.6981 155.923 66.2809 153.78C66.2287 153.524 66.1386 153.287 66.0154 153.097C65.2663 151.893 65.2805 150.556 65.1999 149.21C65.1288 148.048 64.9629 146.877 64.6594 145.73C65.4607 146.839 66.1481 148.001 66.7597 149.21C67.3429 150.352 67.8786 151.523 68.5139 152.637C68.7178 152.993 68.7889 153.372 68.9121 153.728C69.244 154.709 69.8793 155.548 70.178 156.549C70.3344 157.08 70.8844 157.326 71.3016 157.62C71.6667 157.871 72.3115 157.269 72.1929 156.767C72.0365 156.103 71.7615 155.473 71.2637 154.97C70.9982 154.704 71.2258 154.354 71.0788 154.041C70.3297 152.453 69.7797 150.765 68.988 149.214C68.2674 147.792 67.8454 146.308 67.3476 144.834C66.7834 143.155 66.2761 141.434 65.9063 139.728C65.6977 138.765 65.0909 137.992 65.0008 137.025C64.9724 136.736 64.8728 136.447 64.9155 136.006C65.6977 137.229 65.8826 138.571 66.461 139.742C66.9304 140.69 67.0062 141.828 67.8312 142.61C67.9782 142.748 67.8739 142.933 67.9213 143.089C68.3811 144.706 68.9738 146.261 70.3202 147.37C70.709 147.693 71.2258 148.162 71.7188 147.697C72.174 147.266 72.1313 146.744 71.8089 146.066C71.1167 144.606 69.9646 143.435 69.3578 141.946C68.732 140.41 68.1062 138.869 67.5752 137.295C67.1295 135.968 66.6791 134.607 66.4942 133.228C66.3188 131.952 66.0581 130.686 65.9395 129.406C65.7926 127.837 65.4749 126.273 65.584 124.689C65.6361 123.916 65.7831 123.144 65.7641 122.371C66.0628 122.238 66.205 122.47 66.2192 122.617C66.4516 124.599 67.2717 126.429 67.651 128.378C68.0019 130.179 68.8742 131.796 69.5048 133.498C70.0927 135.081 70.8038 136.641 71.0029 138.357C71.0741 138.979 72.3589 139.837 72.9942 139.789C73.4967 139.747 73.8475 139.121 73.6105 138.585C73.2976 137.874 72.9325 137.182 72.5722 136.49C72.2166 135.802 71.8279 135.115 71.8374 134.323C71.8421 133.839 71.4344 133.621 71.3206 133.237C70.9792 132.114 70.5431 131.009 70.3107 129.866C69.9409 128.065 69.1824 126.386 68.7652 124.604C68.5803 123.812 68.0919 123.158 67.9545 122.328C67.7553 121.124 67.7316 119.939 67.6937 118.73C67.6463 117.037 68.1204 115.454 68.3053 113.813C68.3906 113.055 68.6941 112.325 68.9264 111.485C69.4479 111.874 69.4621 112.457 69.5712 112.841C70.0784 114.657 70.3913 116.52 70.8275 118.355C71.2779 120.252 71.5624 122.186 72.155 124.049C72.3636 124.699 72.6244 125.324 72.7761 126.007C72.9088 126.614 73.5441 126.913 74.1178 127.107C74.4971 127.235 74.9143 127.282 75.175 126.808C75.3647 126.467 75.4785 126.107 75.3078 125.765C74.1368 123.456 73.4683 120.982 72.814 118.493C72.3778 116.824 72.0555 115.155 71.9749 113.434C71.2874 113.135 72.3494 112.149 71.3964 111.955C72.0555 111.552 71.6098 110.945 71.6809 110.433C71.8705 109.134 71.8279 107.816 72.1455 106.522C72.2735 106.009 72.705 105.682 72.7903 105.142C73.1459 106.062 73.6058 106.962 73.8286 107.911C74.0514 108.864 74.2837 109.779 74.8337 110.594C74.8669 110.641 74.919 110.694 74.9143 110.736C74.7483 112.253 75.6776 113.576 75.7629 114.984C75.8435 116.326 76.0521 117.639 76.2465 118.952C76.4409 120.266 76.7538 121.56 77.0809 122.854C77.5313 124.637 78.2662 126.334 78.6028 128.141C78.7213 128.766 79.2476 129.013 79.66 129.354C79.8923 129.549 79.9872 129.25 80.0678 129.089C80.2811 128.648 80.1294 128.197 80.1294 127.742C80.1247 125.879 79.5605 124.139 79.148 122.352C78.7023 120.427 78.2662 118.497 77.7968 116.582C77.5171 115.43 77.2326 114.264 76.8628 113.126C76.8202 112.998 76.7491 112.865 76.7585 112.737C76.9055 110.879 76.7443 109.011 77.0051 107.143C77.2042 105.735 77.4318 104.336 77.7304 102.947C77.9296 102.022 78.1666 101.103 78.4274 100.197C78.5601 99.7419 78.7877 99.5427 79.1907 100.041C79.8497 100.851 80.3949 101.733 80.9543 102.61C81.8788 104.056 82.8792 105.464 83.652 106.991C84.1924 108.058 84.8088 109.086 85.3398 110.153C86.0936 111.67 86.9565 113.116 87.8383 114.562C88.6727 115.932 89.3412 117.402 90.1187 118.805C90.8299 120.095 91.3277 121.527 92.1574 122.707C93.0487 123.973 93.2905 125.514 94.2576 126.737C94.9119 127.567 95.367 128.596 95.8269 129.553C96.192 130.317 96.6234 131.066 96.9268 131.867C97.254 132.739 97.8656 133.507 98.1358 134.351C98.5577 135.655 99.359 136.746 99.8283 138.016C100.108 138.775 100.478 139.557 100.895 140.292C101.298 141.003 101.734 141.762 102 142.525C102.872 145.071 104.114 147.455 105.072 149.959C106.257 153.064 107.608 156.103 108.846 159.194C109.315 160.375 109.543 161.66 110.083 162.802C110.918 164.575 111.321 166.491 111.889 168.33C112.62 170.696 113.501 173.033 113.976 175.499C114.203 176.679 114.53 177.883 114.881 179.064C115.35 180.638 115.621 182.269 115.967 183.876C116.512 186.422 117.095 188.958 117.569 191.514C117.963 193.624 118.276 195.743 118.503 197.886C118.702 199.744 118.74 201.622 119.01 203.466C119.276 205.291 119.181 207.116 119.229 208.932C119.271 210.487 119.319 212.061 119.2 213.64C119.11 214.83 119.214 216.058 119.195 217.276C119.172 218.865 119.096 220.448 119.015 222.036C118.906 224.17 118.607 226.275 118.38 228.389C118.271 229.409 117.925 230.404 117.655 231.405C117.569 231.718 117.247 232.177 117.669 232.234C117.925 232.268 118.603 232.305 118.769 231.746C119.105 230.627 119.508 229.513 119.736 228.37C120.243 225.815 120.471 223.212 120.528 220.614C120.608 216.964 120.731 213.308 120.608 209.648C120.528 207.33 120.509 205.011 120.3 202.703C120.068 200.161 119.902 197.615 119.556 195.079C119.262 192.946 118.778 190.855 118.465 188.736C118.157 186.659 117.541 184.658 117.18 182.601C116.692 179.818 115.825 177.134 115.213 174.384C114.71 172.142 114.123 169.899 113.321 167.752C112.596 165.813 111.98 163.845 111.34 161.887C110.126 158.184 108.514 154.643 107.092 151.021C106.096 148.484 104.934 146.024 103.934 143.487C103.261 141.78 102.545 140.078 101.63 138.462C101.123 137.566 100.81 136.527 100.369 135.579C98.8612 132.341 97.3772 129.089 95.6515 125.96C95.1679 125.083 94.9641 124.025 94.0158 123.447C93.0392 120.489 91.3751 117.867 89.8769 115.174C88.2745 112.296 86.7004 109.409 85.1786 106.488C84.1261 104.469 82.718 102.658 81.6418 100.638C81.2483 99.9031 80.594 99.2772 80.1436 98.5376C79.9398 98.2058 79.698 97.926 79.7786 97.4709C79.8307 97.1675 79.6126 96.8641 79.3282 96.7171C78.5649 96.3283 78.4748 95.5223 79.167 95.0388C79.8544 94.5599 79.8212 93.8108 79.0532 93.5216C78.5412 93.3273 78.5412 93.0712 78.6312 92.6208C78.8066 91.7248 79.2096 90.8951 79.2191 89.9422C79.2239 89.1077 79.8829 88.8375 80.6557 89.2358C81.3336 89.5913 81.9168 90.0939 82.4335 90.6344C84.1071 92.3743 85.6432 94.2328 86.5108 96.5369C86.7431 97.1533 87.2172 97.3856 87.7482 97.5657C88.0279 97.6605 88.4451 97.6179 88.5732 97.3571C88.7533 96.9873 88.7628 96.5037 88.521 96.1387C87.2646 94.247 86.3591 92.1183 84.6381 90.5348C84.1498 90.0844 83.8843 89.3827 83.3106 88.9655C83.083 88.7996 83.1068 88.4393 83.3391 88.4393C83.8795 88.4298 84.3773 88.1121 84.9605 88.3729C87.8525 89.6577 90.3937 91.4972 92.9207 93.3604C93.4991 93.7871 94.1059 94.1996 94.727 94.5741C95.0636 94.778 95.4618 95.1241 95.8032 95.437C96.4006 95.9822 97.1307 95.949 97.8371 95.9158C98.0789 95.9064 98.3918 95.7689 98.4534 95.4228C98.5245 95.053 98.2922 94.8112 98.0457 94.65C97.3203 94.1901 96.5333 93.8203 95.8269 93.3367C94.9641 92.7441 94.1533 92.0851 93.3426 91.4261C93.2051 91.3123 92.878 91.1369 93.0866 90.8904C93.2905 90.6486 93.5797 90.7339 93.8452 90.8951C94.8645 91.5114 95.8648 92.1799 96.9316 92.7014C97.6759 93.0665 98.4345 93.6686 99.3732 93.1945C99.5818 93.0902 99.6434 93.3178 99.7667 93.3984C100.924 94.138 102 95.0245 103.043 95.8827C103.934 96.6175 104.764 97.542 105.636 98.3432C106.29 98.9406 106.821 99.8604 107.921 99.8462C108.21 99.8414 108.538 99.9125 108.637 99.5759C108.732 99.2678 108.789 98.9122 108.485 98.6372C107.67 97.8881 106.902 97.0964 106.196 96.2335C104.536 94.2138 102.758 92.2937 101.127 90.2409C100.355 89.2689 99.852 88.0932 98.8659 87.2872C98.7094 87.1592 98.5151 86.9079 98.7331 86.7088C98.956 86.5097 99.0461 86.8226 99.1835 86.9269C100.511 87.9699 101.829 89.0224 103.171 90.0512C103.46 90.274 103.612 90.5917 103.863 90.8382C105.167 92.1278 106.58 93.3699 107.599 94.8681C108.386 96.0202 109.344 96.9968 110.202 98.0635C110.785 98.7842 111.463 99.4526 112.364 99.8319C112.781 100.007 113.132 99.941 113.416 99.666C113.734 99.3578 113.805 98.9548 113.421 98.6372C112.145 97.5799 111.169 96.2382 110.126 94.9866C109.111 93.7682 107.855 92.8057 106.869 91.5494C106.044 90.5016 105.115 89.487 104.181 88.5056C103.944 88.2544 103.631 88.0221 103.602 87.4436C104.114 87.785 104.555 88.041 104.949 88.3539C106.324 89.4586 107.779 90.4874 108.997 91.7485C109.623 92.3933 110.282 93.076 110.846 93.8251C111.401 94.5599 111.927 95.3754 112.662 96.0344C113.535 96.8166 114.407 97.6558 115.142 98.5993C115.796 99.4384 116.735 99.794 117.707 100.045C118.015 100.126 118.347 100.164 118.489 100.434C118.901 101.216 119.632 101.42 120.395 101.52C120.85 101.581 121.087 101.842 121.281 102.188C121.812 103.151 122.121 104.189 122.4 105.251C122.704 106.398 123.391 106.91 124.425 106.887C125.022 106.872 125.425 106.346 125.169 105.839C124.387 104.288 123.576 102.752 122.765 101.216C122.68 101.055 122.514 100.937 122.377 100.79C122.889 100.572 123.609 101.008 123.884 101.667C124.287 102.624 124.662 103.592 125.117 104.526C125.382 105.066 125.951 105.365 126.459 105.64C126.729 105.787 127.227 105.659 127.364 105.327C127.492 105.023 127.71 104.668 127.383 104.265C126.99 103.781 126.691 103.217 126.354 102.691C125.368 101.145 124.823 99.4052 124.083 97.7554C123.851 97.2433 123.467 96.7835 123.443 96.1719C123.434 95.9775 123.33 95.7878 123.533 95.6504C123.775 95.4892 123.875 95.7547 124.026 95.8495C124.685 96.2572 124.932 96.9968 125.254 97.6179C126.113 99.282 126.625 101.093 127.279 102.842C127.819 104.284 127.649 105.91 128.578 107.223C128.933 107.726 129.431 108.01 129.972 108.072C130.488 108.133 131.001 107.73 131.076 107.256C131.181 106.583 131.166 105.863 130.83 105.199C129.834 103.26 128.706 101.368 127.924 99.3436C127.393 97.9687 126.743 96.6602 126.15 95.3043C127.08 95.9301 127.606 96.8925 128.237 97.7506C128.971 98.7557 129.782 99.7466 130.304 100.865C130.882 102.108 131.802 103.174 132.053 104.606C132.157 105.194 132.518 105.839 132.85 106.403C133.153 106.915 133.238 107.546 133.542 107.986C134.348 109.172 134.319 110.665 135.177 111.86C135.49 112.296 135.893 112.993 135.983 113.728C136.078 114.51 137.439 114.956 138.136 114.548C138.653 114.245 138.752 113.576 138.24 112.846C137.87 112.325 137.775 112.05 138.43 111.699C139.283 111.244 139.136 110.376 139.032 109.617C138.7 107.214 137.903 104.929 136.932 102.724C136.211 101.088 135.381 99.4764 134.424 97.9687C133.817 97.011 133.106 96.115 132.527 95.1336C132.352 94.8349 132.328 94.5647 132.333 94.2612C132.333 94.0858 132.361 93.9389 132.608 93.9436C133.527 93.9578 134.182 94.5694 134.699 95.4465C135.381 96.5986 135.87 97.8454 136.609 98.9596C136.87 99.3484 136.87 99.8082 137.055 100.221C137.723 101.733 138.449 103.222 138.999 104.777C139.307 105.644 139.568 106.54 139.947 107.38C140.549 108.712 141.189 110.03 141.886 111.315C142.232 111.955 142.924 111.865 143.55 111.803C144.048 111.756 144.128 111.367 144.275 110.992C144.38 110.727 144.384 110.513 144.185 110.338C142.436 108.792 141.838 106.526 140.905 104.554C140.227 103.117 139.52 101.553 139.202 99.9078C139.108 99.41 138.7 98.9833 138.525 98.476C138.411 98.1489 138.354 97.8549 138.525 97.4188C139.07 98.5708 139.577 99.6233 140.075 100.681C141.061 102.771 141.985 104.886 143.047 106.934C143.436 107.688 143.702 108.532 144.171 109.195C144.811 110.096 144.915 111.253 145.755 112.054C146.162 112.443 146.224 113.121 146.774 113.515C147.504 114.041 148.172 114.202 148.623 113.695C149.149 113.093 148.969 112.419 148.485 111.95C146.978 110.476 146.091 108.589 145.048 106.825C143.92 104.919 142.91 102.942 142.142 100.837C141.796 99.8936 141.516 98.9454 141.047 97.798C141.995 98.3433 142.644 98.8363 143.104 99.5332C144.252 101.278 145.726 102.79 146.779 104.601C147.404 105.678 147.888 106.849 148.566 107.892C149.296 109.02 149.808 110.262 150.353 111.457C151.027 112.922 151.818 114.306 152.62 115.691C153.241 116.762 153.952 117.781 154.682 118.787C155.184 119.479 155.967 119.555 156.678 119.261C157.242 119.028 157.308 118.426 157.052 117.89C156.616 116.975 156.204 116.046 155.63 115.202C154.388 113.363 153.146 111.528 151.942 109.67C151.709 109.314 151.188 109.115 151.283 108.546C151.539 108.389 151.705 108.57 151.804 108.755C152.586 110.148 153.871 110.95 155.194 111.727C156.227 112.334 157.199 113.059 158.427 113.225C158.826 113.277 159.229 113.315 159.627 113.292C160.11 113.258 160.49 112.96 160.603 112.514C160.703 112.14 160.651 111.689 160.276 111.419C160.001 111.225 159.802 110.978 159.527 110.622C160.798 111.101 161.604 112.031 162.576 112.723C162.836 112.908 163.092 112.998 163.363 113.112C164.012 113.387 164.723 113.533 165.06 114.311C165.136 114.491 165.439 114.738 165.681 114.927C166.819 115.823 168.075 116.568 169.047 117.687C169.607 118.331 170.522 118.208 171.162 117.696C171.475 117.445 172.006 117.492 172.375 117.487C173.039 117.478 173.21 117.009 173.333 116.658C173.513 116.151 173.162 115.62 172.712 115.406C170.792 114.51 168.986 113.415 167.146 112.377C165.814 111.623 164.557 110.784 163.334 109.869C162.813 109.48 162.111 109.385 161.514 109.086C160.414 108.536 159.726 107.508 158.754 106.811C158.498 106.631 158.522 106.256 158.977 106.294C159.774 106.365 160.599 106.403 161.348 106.64C161.888 106.811 162.424 106.782 162.955 106.891C163.443 106.996 163.818 106.787 163.898 106.299C163.974 105.853 163.97 105.431 163.367 105.194C161.438 104.431 159.456 103.814 157.598 102.876C156.37 102.255 155.109 101.7 153.795 101.278C153.155 101.074 152.7 100.562 152.051 100.358C149.595 99.5901 147.547 98.0256 145.347 96.7692C144.19 96.1055 143.033 95.4655 141.815 94.9345C141.312 94.7164 140.829 94.4509 140.34 94.1901C139.923 93.9673 139.549 93.7634 139.018 93.8914C138.52 94.0052 138.25 93.5928 138.012 93.1661C137.657 92.5165 137.278 91.8575 136.386 91.7864C136.116 91.7627 135.907 91.8196 135.822 92.033C135.557 92.7109 135.158 92.4834 134.684 92.2842C132.257 91.2507 129.858 90.146 127.298 89.4538C126.577 89.2595 125.899 88.9323 125.231 88.553C124.453 88.1169 123.505 87.9225 122.633 87.7566C121.187 87.4816 119.935 86.7562 118.565 86.3153C117.484 85.9644 116.365 85.8222 115.289 85.4856C113.8 85.0162 112.477 84.1771 111.003 83.6888C109.775 83.2858 108.557 82.8401 107.31 82.4845C106.352 82.2096 105.47 81.7212 104.484 81.5126C104.124 81.4368 103.778 81.3514 103.413 81.4036C101.322 81.688 99.231 81.6217 97.1354 81.4557C96.173 81.3799 95.1964 81.4463 94.2244 81.4842C92.5414 81.5458 90.8915 81.1523 89.2132 81.1808C88.7438 81.1902 88.6964 80.9959 88.7154 80.5739C88.7533 79.8106 89.3365 79.2085 89.2322 78.393C89.1279 77.5729 88.7912 76.985 88.1085 76.544C87.8336 76.3686 87.2457 76.3023 87.4922 75.8234C87.7055 75.4157 88.1844 75.2071 88.7154 75.3446C89.1942 75.4726 89.5925 75.8044 89.8437 76.1505C90.1187 76.5298 90.4696 76.7716 90.7967 77.0656C91.1712 77.4022 91.6975 77.5397 91.4936 78.303C91.3656 78.7818 91.9914 78.9288 92.4134 78.9146C92.878 78.8956 93.0771 78.5353 93.0724 78.0944C93.0724 77.9379 92.878 77.734 92.9301 77.6297C93.5702 76.3117 92.6884 75.6717 91.8065 75.0222C91.669 74.9226 91.5742 74.7757 91.7117 74.4959C93.4896 75.0743 95.495 74.861 97.2208 76.032C97.2255 75.6954 97.2492 75.4204 97.619 75.1692C98.2591 74.7425 98.1216 74.1404 97.3772 73.8512C96.4527 73.4956 95.5093 73.1779 94.5611 72.884C94.0443 72.7228 93.5844 72.5 93.2288 72.0827C92.75 71.5281 92.0151 71.3526 91.4699 70.8975C91.2376 70.7031 91.1855 70.907 91.1143 71.0397C90.9531 71.3431 90.8014 71.6561 91.1807 72.0496C90.0286 71.9974 89.071 71.9073 88.4072 70.9923C88.1275 70.6083 88.0611 70.2812 88.4641 69.9825C88.8576 69.6885 89.1279 69.2618 89.6304 69.0817C90.1804 68.8826 90.626 68.7451 91.176 69.1718C92.5888 70.2622 94.2387 70.9686 95.9217 71.419C97.1923 71.7604 98.4961 72.0875 99.9184 72.0353C100.971 71.9974 102.019 71.8125 103.076 71.8078C103.351 71.8078 103.768 71.9026 103.73 71.4C103.702 70.9971 103.967 70.4471 103.275 70.3143C101.53 69.9825 99.9753 69.167 98.3918 68.4179C98.169 68.3089 97.8181 68.2567 97.9698 67.9438C98.1263 67.6214 98.3397 67.996 98.5246 68.0434C100.539 68.5365 102.398 69.4325 104.299 70.2337C105.489 70.7363 106.589 71.6324 108.016 71.5043C108.495 71.4617 109.035 71.5565 109.159 70.9259C109.296 70.2243 108.713 69.9825 108.234 69.7454C107.864 69.5653 107.262 69.6127 107.073 69.3472C106.57 68.6218 105.589 68.9679 105.043 68.2947C104.911 68.1335 104.228 68.0292 103.816 67.8348C103.673 67.7684 103.555 67.7163 103.593 67.5456C103.635 67.3797 103.797 67.356 103.929 67.3702C104.28 67.4128 104.65 67.4318 104.982 67.5456C106.361 68.0102 107.751 68.1193 109.182 67.8301C109.552 67.7542 109.922 67.702 109.993 67.2469C110.059 66.8202 109.784 66.5452 109.467 66.3698C108.983 66.0996 108.476 65.872 107.959 65.6587C107.651 65.5307 107.186 65.4832 107.329 65.0566C107.404 64.8195 107.879 64.9712 108.116 65.0376C109.818 65.507 111.558 65.9147 113.117 66.7538C113.791 67.1142 114.54 67.1047 115.184 67.4366C116.787 68.2615 118.622 68.3089 120.272 68.9869C120.784 69.1955 121.39 69.1054 121.879 68.8683C122.495 68.5697 122.263 67.4982 121.438 67.1568C120.366 66.7064 119.518 65.9194 118.508 65.3932C117.019 64.6156 115.564 63.7765 114.028 63.0796C112.482 62.3779 110.903 61.7568 109.325 61.1405C108.594 60.856 107.798 60.8039 107.087 60.4151C106.807 60.2634 106.556 60.197 106.67 59.8699C106.779 59.557 107.03 59.7039 107.295 59.7419C108.884 59.9837 110.15 61.0551 111.681 61.4249C112.842 61.7094 114.023 61.9417 115.17 62.2688C116.853 62.7524 118.551 63.1886 120.272 63.5015C120.916 63.62 121.547 63.492 122.187 63.4541C122.95 63.4114 123.121 62.8899 122.946 62.3921C122.628 61.4771 123.116 62.0223 123.415 62.046C125.074 62.1788 126.577 62.9468 128.203 63.2645C129.204 63.4588 130.195 63.8334 131.233 63.9519C132.077 64.0515 132.641 63.4636 132.522 62.686C132.399 61.8896 131.579 62.0982 131.332 62.1266C130.531 62.2119 129.92 61.8042 129.246 61.5956C126.98 60.8892 124.695 60.2255 122.5 59.3389C121.414 58.9027 120.319 58.4381 119.271 57.8881C118.446 57.4567 117.474 57.3571 116.697 56.6839C117.683 56.2714 118.664 56.1814 119.698 56.2762C120.902 56.39 122.121 56.3663 123.325 56.4658C124.586 56.5701 125.842 56.7361 127.094 56.9162C128.099 57.0585 129.095 57.2576 130.119 57.2671C130.958 57.2718 131.797 57.2386 132.627 57.3287C133.357 57.4093 133.94 56.9968 134.613 56.902C134.959 56.8499 134.907 56.5038 134.803 56.2809C134.428 55.4939 134.784 55.2095 135.528 55.1573C135.609 55.1526 135.694 55.1336 135.775 55.1241C136.443 55.034 136.804 54.6642 136.69 53.9815C136.585 53.3747 136.002 53.3036 135.58 53.351C133.319 53.6117 131.048 53.3699 128.786 53.5074C128.459 53.5264 128.127 53.4079 127.796 53.3605C127.615 53.3368 127.336 53.4363 127.34 53.1471C127.345 52.9148 127.63 52.8721 127.805 52.8627C128.568 52.8105 129.332 52.6446 130.081 52.6019C131.209 52.5355 132.309 52.3411 133.414 52.1705C135.125 51.9097 136.832 51.5731 138.543 51.3266C139.283 51.2223 139.44 50.7813 139.411 50.1792C139.373 49.4728 138.833 49.6909 138.411 49.6577C136.514 49.506 134.642 49.8948 132.769 50.0323C131.84 50.0986 130.773 50.2409 129.825 50.5917C129.697 50.6391 129.55 50.677 129.412 50.6723C129.227 50.6676 128.971 50.7292 128.919 50.4732C128.843 50.1271 129.194 50.1223 129.365 50.1034C131.707 49.8142 133.883 48.8612 136.197 48.4535C136.704 48.3634 137.188 48.0695 137.638 47.7992C138.06 47.548 138.311 47.2019 137.851 46.7183C137.591 46.4433 137.681 46.23 138.036 46.0877C138.463 45.9171 138.634 45.571 138.468 45.1443C138.292 44.6986 137.941 44.6038 137.453 44.637C135.851 44.746 134.457 45.4524 133.015 46.0451C132.285 46.3485 131.513 46.5429 130.593 46.8463C131.043 45.936 131.584 45.277 132.342 44.8883C134.177 43.9495 135.765 42.6268 137.572 41.6454C137.984 41.4226 138.363 41.1855 138.444 40.6071C138.501 40.2041 138.928 39.9339 139.278 39.7063C139.587 39.5072 139.719 39.2275 139.838 38.9051C139.975 38.5448 139.952 38.2319 139.667 37.9806C139.383 37.7293 139.06 37.7767 138.724 37.9142C137.714 38.3267 136.813 38.9193 135.912 39.5167C135.073 40.0714 134.31 40.7636 133.148 40.683C132.717 40.6545 132.219 41.0386 131.811 41.3183C129.891 42.6363 127.819 43.6651 125.691 44.5896C125.155 44.8219 124.695 45.1016 124.278 45.6042C123.661 46.3438 122.604 46.5903 121.722 46.9648C120.499 47.4816 119.432 48.2307 118.314 48.9086C117.493 49.4065 116.687 49.9232 115.663 49.928C115 49.9327 114.587 50.549 113.947 50.7482C111.226 51.6063 108.519 52.5166 105.859 53.5548C103.83 54.3466 101.715 54.8491 99.6814 55.603C98.278 56.1245 96.8605 56.5986 95.5851 57.4425C94.9261 57.8787 94.1249 58.1157 93.3711 58.3954C92.2664 58.7984 91.285 59.3579 90.4553 60.2207C90.0808 60.6095 89.5451 60.8418 89.0757 61.1405C88.2555 61.6667 87.7909 62.5201 87.2172 63.255C86.3259 64.3976 85.0458 65.104 84.1118 66.1612C83.0593 67.3512 81.675 68.1761 80.6746 69.4041C80.2384 69.9351 79.8876 70.5372 79.5083 71.0966C78.636 72.3767 77.6356 73.5714 76.9671 75.0127C76.4077 76.2169 76.0284 77.5776 74.9285 78.4831C74.1842 77.6819 73.729 76.6199 72.7571 76.0083C72.4774 75.8329 72.5532 75.6101 72.6481 75.3446C73.7006 72.3862 74.5587 69.3804 75.066 66.2797C75.1561 65.7298 75.2983 65.1656 75.5448 64.6773C75.8814 64.0088 75.4358 63.6011 75.0281 63.4825C74.6108 63.3593 73.9708 63.3166 73.6863 63.9424C73.326 64.7294 72.8614 65.4738 72.7334 66.3509C72.6955 66.6069 72.5959 66.8392 72.2783 66.9198C71.9796 66.5689 72.283 66.2371 72.3399 65.9194C72.5959 64.4924 72.7903 63.0369 73.2122 61.6572C73.7006 60.0406 74.8337 58.751 75.9526 57.5468C76.7775 56.6602 77.1852 55.6456 77.5882 54.5742C77.702 54.266 77.6878 53.991 77.3986 53.8488C77.0809 53.6971 76.7348 53.626 76.3745 53.8156C75.7866 54.1285 75.2888 54.5884 74.8906 55.072C74.2268 55.8779 73.4256 56.5749 72.8899 57.4899C72.7998 57.6463 72.686 57.8929 72.449 57.7601C72.2261 57.6369 72.3352 57.4283 72.4158 57.2434C73.2265 55.4181 74.1842 53.7113 75.7297 52.3696C76.4741 51.7201 77.1046 50.9378 77.7826 50.2077C77.939 50.0417 77.9675 49.8189 77.7731 49.6957C77.4507 49.4918 77.3512 48.9418 76.7917 49.0935C75.9004 49.3401 75.2367 49.8237 74.6583 50.5727C73.9234 51.5209 73.0084 52.3317 72.0791 53.2988C72.027 52.4692 72.3684 51.8718 72.5817 51.2792C73.1933 49.5676 73.9708 47.9178 75.1656 46.5097C75.2177 46.4481 75.2556 46.3532 75.322 46.32C75.9952 45.9834 76.109 45.405 75.7677 44.8503C75.4168 44.2814 74.6014 44.3099 74.1842 44.4948C73.1174 44.9641 72.4158 45.9313 71.6667 46.851C71.387 46.7183 71.4533 46.4433 71.5624 46.1826C72.2593 44.5137 73.1222 42.935 74.3074 41.5601C74.9569 40.8062 75.7202 40.152 76.3935 39.4171C76.6305 39.1564 76.8391 38.9762 77.1947 38.8956C77.7352 38.7723 77.9343 38.2129 77.8253 37.8336C77.7304 37.5018 77.3322 37.2552 76.749 37.3026C75.6302 37.3974 74.9664 38.2271 74.0562 38.6301C72.9989 39.0995 72.283 39.8296 71.9085 40.9058C71.8611 41.0386 71.7994 41.1713 71.6193 41.214C71.5245 39.6447 71.8942 38.2793 72.8425 37.0845C74.0941 35.501 75.2888 33.8749 76.6732 32.4052C77.1425 31.9073 77.7067 31.5376 78.3705 31.3669C78.7687 31.2626 78.9299 31.0303 78.9394 30.651C78.9489 30.1911 78.5886 30.1627 78.2757 30.0441C77.0477 29.57 75.9478 30.229 74.8716 30.5562C73.7148 30.9117 72.558 31.547 71.9986 32.7655C71.6904 33.434 71.496 34.1593 71.2921 34.8705C70.9935 35.904 70.6948 36.9281 70.159 37.8621C70.0879 37.8431 70.0121 37.8194 69.9409 37.8004C70.178 36.7859 70.3439 35.7476 70.6616 34.7567C71.2969 32.7655 72.4679 31.0682 73.8049 29.4894C74.1367 29.0959 74.5871 28.7451 75.0138 28.4843C75.8103 28.0007 76.0521 27.0004 76.9292 26.6306C77.152 26.5358 77.1141 26.2229 77.0999 26.0095C77.062 25.3884 77.062 24.8148 77.3606 24.2127C77.6261 23.6722 76.7917 23.0464 76.0711 23.274C75.2177 23.5394 74.516 23.9898 73.9376 24.7674C73.1743 25.7962 72.5343 26.9388 71.5529 27.7921C71.1262 28.1619 71.0503 28.7783 70.5857 29.167C70.3439 28.7309 70.5668 28.4085 70.6474 28.0671C71.0835 26.1612 71.7852 24.3644 72.7666 22.6624C73.4635 21.4534 74.1415 20.2397 75.066 19.1825C75.1371 19.1019 75.213 18.9881 75.2224 18.8885C75.2983 17.9498 75.6349 17.1817 76.3982 16.5512C76.7775 16.2383 76.6637 15.7025 76.1517 15.4418C75.7108 15.2142 75.6065 15.0341 75.9241 14.5457C76.4741 13.6924 76.2892 13.2846 75.3173 13.0665C74.9522 12.9859 75.0091 12.8437 75.0423 12.6209C75.3457 10.5775 75.2367 8.52464 75.1656 6.47178C75.1276 5.30075 74.9238 4.1629 74.7436 3.01084C74.6915 2.69319 74.5587 2.44665 74.3928 2.15745C73.9471 2.41347 74.0182 2.80697 74.023 3.18626C74.0704 5.8839 74.2268 8.58153 73.8713 11.2744C73.8618 11.3503 73.8238 11.4261 73.7148 11.502C73.8618 10.6865 73.6911 9.88531 73.6911 9.07934C73.6911 8.6005 73.7101 8.1264 73.6958 7.64755C73.6626 6.36274 73.1933 5.99294 71.9843 6.27266C71.8516 6.30585 71.7188 6.33903 71.5719 6.37696C71.3822 5.20593 71.1594 4.06334 71.0266 2.90653C70.9461 2.22383 70.4293 2.03419 69.9646 1.85877C69.5095 1.68809 69.7371 2.42769 69.2914 2.47984C69.1255 1.90618 68.8315 1.34674 68.6277 0.763594C68.4617 0.289492 68.182 0.00977186 67.7648 0.000289827C67.3571 -0.00919221 67.0015 0.213634 66.8783 0.720923C66.5748 1.98203 65.8684 3.15781 66.0865 4.5327C66.1529 4.94991 66.3662 5.38609 65.9917 5.77959C65.674 5.51884 65.5223 4.67968 64.778 5.29601C64.631 5.41927 64.522 5.55676 64.5978 5.7227C65.2426 7.13552 65.1573 8.64791 65.29 10.1413C65.4228 11.6063 65.7831 13.0476 65.9964 14.5031C66.224 16.0392 66.5796 17.5895 66.5559 19.1256C66.5179 21.2922 66.3283 23.4589 65.712 25.5923C65.418 26.6021 65.1004 27.7684 65.6124 28.9395C65.7831 29.333 65.4986 29.9872 65.2947 30.4661C64.7922 31.6371 64.8017 32.9219 64.4177 34.1167C64.375 34.2447 64.4414 34.4391 64.3655 34.5244C63.2988 35.7191 63.1708 37.3643 62.3648 38.6586C61.5493 39.9671 61.2933 41.3515 61.3881 42.8022C61.4593 43.8405 61.4308 44.8456 61.336 45.8791C61.2839 46.4338 60.9757 46.8605 60.9472 47.3915C60.8572 49.2453 60.2029 51.0184 60.1223 52.8769C60.0939 53.6023 59.7383 54.285 59.7857 55.0293C59.7952 55.1715 59.6672 55.4418 59.5723 55.456C58.6052 55.603 58.9513 56.4137 58.975 56.8688C59.0413 58.1821 59.3495 59.4527 59.9706 60.6521C60.3831 61.4486 60.2693 62.3968 60.4352 63.2739C60.9709 66.0379 61.3787 68.8209 61.8338 71.5992C61.9002 71.9927 61.8054 72.3719 61.6631 72.7465C61.3644 73.543 61.6584 74.0787 62.4786 74.2636C63.2656 74.4438 63.3035 75.1265 63.3746 75.7049C63.4884 76.6578 63.7492 77.5539 64.0384 78.4689C64.2991 79.2891 64.4935 80.1093 64.9629 80.8584C65.309 81.4131 65.7357 81.8824 66.2003 82.3281C66.4184 82.5367 66.5369 82.8306 66.3425 83.0867C66.1102 83.3996 65.9016 83.0582 65.693 82.9729C63.4315 82.0579 61.1132 81.2614 58.9323 80.1804C56.6993 79.0757 54.2339 78.9335 51.9393 78.1275C50.7872 77.7246 49.5071 77.7957 48.3077 77.5681C46.8711 77.2979 45.4536 77.4922 44.036 77.4496C42.4999 77.4022 40.9496 77.7388 39.404 77.9142C38.3326 78.0375 37.2563 78.1038 36.1896 78.2224C35.1466 78.3362 34.0941 78.4499 33.0605 78.6301C31.9322 78.8245 30.7991 78.687 29.6707 78.815C28.3575 78.962 27.0063 78.9383 25.7072 79.0805C23.8345 79.2844 22.0045 79.8817 20.1697 80.3653C19.5866 80.517 19.1741 81.0053 18.9845 81.56C18.8422 81.9773 18.7095 81.9393 18.4013 81.7829C16.832 80.9864 15.3766 81.3894 13.9495 82.2001C13.5418 82.4324 13.0772 82.5509 12.6552 82.7595C10.4506 83.8547 8.59215 85.4572 6.80478 87.0928C5.93243 87.8893 5.23076 88.9134 4.36789 89.7667C4.02654 90.1034 3.68045 90.4589 3.26797 90.6486C1.9879 91.2412 1.18193 92.3553 0.219498 93.2893C-0.10762 93.607 -0.0222778 94.0763 0.172104 94.3513C0.371231 94.631 0.617752 95.0957 1.16771 94.8823C1.30046 94.8302 1.45216 94.6784 1.64182 94.797C1.3526 95.4607 1.55174 96.2335 1.18669 96.8735C0.963867 97.267 0.812134 97.6558 0.992294 98.092C1.10608 98.3622 0.726822 98.8079 1.30997 98.9217C1.95474 99.0544 2.50943 98.8316 2.62794 98.2437C2.72276 97.7554 3.13049 97.3239 2.92189 96.7455C2.7607 96.2951 3.29642 96.0344 3.44814 95.6456C3.83215 94.631 4.10242 93.479 5.18811 92.7678C5.55316 92.5308 6.01779 92.0804 6.28328 91.5446C6.81429 90.4874 7.96161 90.1223 8.89084 89.5344C9.38866 89.2215 9.88646 88.7854 10.5834 88.7664C9.4977 90.8382 8.61584 92.8626 8.72015 95.2189C8.75807 96.0723 8.44519 96.9446 8.26503 97.8028C8.2034 98.1015 7.99005 98.4855 8.412 98.5708C8.8624 98.6609 9.46925 98.8695 9.78217 98.3812C10.1757 97.7696 10.4696 97.1864 10.4364 96.2857C10.3985 95.2331 11.1381 94.1664 12.0247 93.3889C12.0009 92.673 12.6125 92.2226 12.7832 91.5873C12.7927 91.5589 12.9492 91.5304 13.006 91.5636C13.0582 91.5873 13.1056 91.7438 13.0866 91.7627C12.5793 92.2416 12.9112 93.2514 12.0009 93.4126ZM25.5603 120.787C25.546 121.039 25.5366 121.295 25.5081 121.546C25.4844 121.754 25.5223 122.072 25.1857 122.01C24.9155 121.963 25.0435 121.707 25.0577 121.522C25.2189 119.825 25.3754 118.123 25.5366 116.425C25.584 115.932 25.4607 115.539 24.9629 115.364C24.6547 115.254 24.6405 115.126 24.8539 114.894C26.4705 113.121 28.2958 111.566 30.0263 109.911C30.1259 109.817 30.2065 109.66 30.3629 109.712C30.5478 109.769 30.5431 109.968 30.5858 110.129C30.7375 110.675 30.2918 111.002 30.1211 111.428C29.5475 112.851 29.0022 114.283 28.4381 115.705C28.2342 116.217 27.9687 116.606 27.3002 116.577C26.9209 116.563 26.6791 116.885 26.4848 117.227C25.8495 118.331 25.6598 119.545 25.5603 120.787ZM43.4481 99.9457C43.1637 101.572 42.3672 102.918 42.1491 104.431C42.1017 104.767 42.0116 104.886 41.6181 104.587C40.85 104.004 40.1057 104.089 39.423 104.791C38.8446 105.379 38.3468 106.047 37.83 106.697C37.3607 107.285 37.0383 107.996 36.3651 108.56C36.3651 108.2 36.3366 107.949 36.3698 107.702C36.4504 107.067 36.1185 106.711 35.6065 106.436C35.4121 106.332 35.0186 106.512 35.0281 106.114C35.0328 105.796 35.3362 105.663 35.5591 105.512C36.2702 105.019 37.0051 104.563 37.7115 104.07C38.4938 103.52 39.148 102.814 40.0061 102.335C41.1867 101.676 42.1348 100.662 43.4481 99.9457ZM121.509 95.5508C121.12 94.7401 120.419 94.1759 119.978 93.4126C119.157 91.9903 118.351 90.5727 117.683 89.0698C117.612 88.9086 117.327 88.7617 117.489 88.591C117.64 88.4298 117.92 88.3492 118.176 88.4582C118.788 88.7142 119.48 88.8233 120.044 89.1125C120.665 89.4301 121.4 89.4728 121.95 90.1081C122.282 90.4921 122.291 90.8761 122.481 91.2412C122.813 91.8955 123.107 92.5734 123.391 93.2514C123.557 93.6496 123.538 93.7255 122.998 93.6449C121.533 93.4316 120.902 94.0242 121.547 95.3185C121.571 95.3801 121.523 95.4749 121.509 95.5508ZM77.3085 97.4899C77.3654 98.9074 76.7491 100.169 76.6258 101.539C76.5215 102.71 75.7487 103.795 75.8767 104.976C76.0142 106.256 75.3267 107.455 75.725 108.731C75.4405 108.2 75.2414 107.664 75.0281 107.133C74.6535 106.185 74.2885 105.185 74.1225 104.227C73.9471 103.189 73.9945 102.051 74.6346 100.951C75.3789 99.6613 76.5452 98.7652 77.3085 97.4899ZM62.6872 136.162C62.6255 136.764 63.0712 137.295 62.8199 137.879C62.1894 139.334 61.5873 140.799 60.9852 142.264C60.2645 144.018 59.1836 145.606 58.6384 147.441C58.591 147.598 58.5388 147.802 58.4203 147.882C57.4294 148.546 57.5337 149.85 56.7988 150.665C56.6945 150.779 56.7988 151.106 56.4859 151.002C56.2441 150.926 56.2963 150.746 56.3532 150.523C56.6614 149.418 57.1355 148.37 57.5621 147.323C58.5103 145 59.7477 142.795 60.7481 140.491C60.9804 139.96 61.3834 139.547 61.5399 138.945C61.7864 137.983 62.2937 137.087 62.6872 136.162ZM116.465 91.4071C116.09 91.1654 115.995 90.7908 115.768 90.5348C114.815 89.4444 114.232 88.0315 112.757 87.3725C112.098 87.0786 111.724 87.2208 111.382 87.6285C111.022 88.0552 111.212 88.5151 111.586 88.8944C112.055 89.3732 112.311 89.9659 112.601 90.6201C112.439 90.5964 112.373 90.6059 112.345 90.5775C110.993 89.25 109.851 87.7376 108.623 86.3058C108.552 86.2205 108.476 86.1256 108.552 86.0071C108.68 85.808 108.85 85.9218 109.002 85.955C110.363 86.2299 111.724 86.5144 113.084 86.7847C114.303 87.0264 115.265 87.6333 115.587 88.8754C115.801 89.7288 116.521 90.3973 116.465 91.4071ZM151.994 105.853C151.287 105.967 150.552 105.787 150.443 106.678C150.424 106.83 150.467 107.057 150.254 107.086C150.021 107.114 149.941 106.92 149.856 106.725C149.585 106.114 149.272 105.521 149.012 104.905C148.514 103.72 147.717 102.648 147.566 101.259C148.135 101.567 148.632 101.837 149.244 101.885C149.841 101.932 151.178 103.321 151.074 103.757C150.856 104.644 151.273 105.222 151.994 105.853ZM137.439 110.006C136.476 109.233 133.134 100.064 133.234 98.5898C135.258 102.212 137.116 105.725 137.439 110.006ZM58.5341 96.5417C58.937 94.6737 59.615 93.0191 60.3262 91.3645C60.5443 90.8572 60.8809 90.568 61.3455 90.5206C62.0803 90.4495 62.7441 90.0322 63.5121 90.1508C63.6449 90.1697 63.8392 89.9754 63.9198 90.2077C63.9767 90.3736 63.8392 90.4779 63.697 90.5964C62.2083 91.8243 60.8477 93.1566 59.8615 94.8586C59.5391 95.4228 59.1836 96.0628 58.5341 96.5417ZM100.478 92.2036C99.8852 92.142 99.8663 91.5494 99.4965 91.3076C97.4483 89.9659 95.9976 87.932 94.0063 86.5239C93.7693 86.358 93.6271 86.064 93.9827 85.9597C94.5136 85.808 95.0399 85.5757 95.6562 85.9408C96.2915 86.32 96.4338 87.0122 96.9221 87.4626C98.2211 88.6573 99.0982 90.2124 100.326 91.4688C100.483 91.6252 100.62 91.886 100.478 92.2036ZM59.4728 126.917C59.9564 125.822 60.3214 124.827 60.8192 123.897C61.445 122.731 62.232 121.655 62.7014 120.403C62.8152 120.105 63.057 119.943 63.3035 120.062C63.6117 120.204 63.8298 121.954 63.6022 122.243C62.7299 123.366 62.1562 124.722 60.9947 125.623C60.5063 126.002 60.1697 126.562 59.4728 126.917ZM87.9521 85.13C87.4116 85.3102 87.4685 84.9546 87.6297 84.49C87.7198 84.2292 87.8004 83.9543 87.8193 83.6793C87.843 83.2763 88.0943 83.0867 88.4167 83.1293C89.711 83.3 91.0527 83.0061 92.3186 83.4707C92.7737 83.6366 93.4422 83.7836 93.4564 84.2624C93.4659 84.5469 92.6884 84.5611 92.2617 84.6038C91.5505 84.6796 90.7635 84.4663 90.1235 84.6986C89.4408 84.9546 88.7723 84.9878 87.9521 85.13ZM71.9606 80.005C72.7761 81.7544 73.1364 83.575 73.3213 85.4335C73.3782 86.0071 72.8187 86.2489 72.3304 85.9123C71.7615 85.5235 71.7899 84.9688 71.9749 84.3999C72.0697 84.106 72.1882 83.8737 71.9037 83.5655C71.0883 82.6932 71.1167 81.0575 71.9606 80.005ZM85.6716 83.2147C85.9798 83.1957 86.0604 83.3237 86.1078 83.5039C86.2548 84.0301 85.6574 85.1443 85.1359 85.3576C84.0265 85.8127 82.7749 85.5709 81.6655 86.0735C81.3194 86.2299 81.1535 85.8839 81.0492 85.5662C80.9164 85.168 81.1961 84.9878 81.4521 84.9831C82.3814 84.9641 83.102 84.4094 83.927 84.1249C84.5907 83.8974 85.245 83.6935 85.6716 83.2147ZM40.7552 90.4163C40.8026 90.2551 40.8216 90.0797 40.8975 89.9422C41.9974 87.9936 43.0736 86.0308 44.2256 84.1155C44.5575 83.5608 44.823 82.8022 45.7902 82.8923C45.7475 83.4233 45.6195 84.0064 45.2971 84.4141C43.7515 86.3864 42.0969 88.2828 40.7552 90.4163ZM112.449 55.4513C112.198 55.5176 111.885 55.5461 111.581 55.3517C111.392 55.2284 111.34 55.0957 111.534 54.9771C112.515 54.375 113.402 53.6212 114.45 53.1282C114.691 53.0144 115.166 53.0049 115.147 53.0476C114.91 53.5596 115.943 54.0479 115.227 54.4699C114.397 54.9534 113.61 55.6362 112.449 55.4513ZM53.831 83.0772C52.7595 85.5378 51.0385 87.4674 48.9335 89.084C49.839 86.4955 52.1337 85.021 53.831 83.0772ZM62.91 60.088C61.9665 57.3714 61.8907 54.8681 62.4975 52.3269C62.7061 54.8349 63.4505 57.305 62.91 60.088ZM48.1891 81.835C48.5732 81.1665 48.4309 80.5312 48.6348 79.9576C48.6917 79.7964 48.6016 79.5641 48.9477 79.5925C50.2705 79.7063 51.5648 79.9671 52.8306 80.3558C53.1862 80.4649 53.4043 80.6545 53.0629 81.0006C52.8354 81.2282 52.7927 81.6217 52.4324 81.7402C51.8919 80.3132 51.176 80.0761 49.7869 80.8726C49.2938 81.1571 48.8197 81.4557 48.1891 81.835ZM41.6133 84.1249C41.5233 83.6413 41.7413 83.4565 41.8219 83.2289C42.1538 82.257 42.8697 81.3657 42.7227 80.2989C42.6137 79.5404 42.9646 79.4503 43.5003 79.4266C43.7468 79.4171 43.9933 79.5167 44.2351 79.4977C44.6334 79.4645 44.7092 79.5451 44.4722 79.8912C43.5382 81.2614 42.6137 82.6363 41.6133 84.1249ZM101.336 58.0967C101.535 58.2247 102.104 58.1204 101.753 58.6277C101.497 58.9975 101.118 59.5143 100.762 59.5428C99.7572 59.6186 98.79 59.7656 97.8466 60.1069C97.7233 60.1496 97.5669 60.0975 97.5242 59.922C97.5005 59.8082 97.51 59.6992 97.6237 59.6376C98.7995 58.9833 100.051 58.5329 101.336 58.0967ZM157.029 110.376C156.801 110.523 156.659 110.471 156.493 110.39C156.014 110.158 155.659 109.627 155.256 109.494C154.478 109.238 154.094 108.636 153.554 108.167C153.411 108.043 153.26 107.882 153.354 107.655C153.468 107.394 153.71 107.427 153.933 107.437C154.194 107.451 154.445 107.527 154.62 107.716C155.44 108.584 156.313 109.404 157.029 110.376ZM82.2866 80.9105C82.6327 80.2989 82.9408 79.4787 83.8084 79.0378C84.3536 78.7628 84.6381 78.9051 84.676 79.5262C84.6903 79.7916 84.6239 80.0666 84.4485 80.2278C83.9459 80.6972 83.4529 81.1855 82.8033 81.47C82.3766 81.6549 82.3103 81.451 82.2866 80.9105ZM66.9731 110.257C67.3144 111.092 66.5796 111.76 66.5796 112.557C66.5796 112.822 66.3378 112.803 66.1671 112.884C65.4322 113.235 64.7258 113.619 64.3086 114.377C64.228 114.524 64.0763 114.629 63.8819 114.415C64.9249 113.026 65.7404 111.471 66.9731 110.257ZM68.7035 73.1163C68.9027 71.0966 69.2393 69.1101 70.4909 67.1284C70.2254 69.3898 69.756 71.3337 68.7035 73.1163ZM66.6696 52.417C66.6128 51.3645 66.5369 50.3167 66.5084 49.2642C66.5037 49.0319 66.4563 48.6147 66.8877 48.6716C67.1248 48.7048 67.5941 48.5483 67.5847 48.9086C67.5467 50.1271 67.5657 51.3787 66.6696 52.417ZM51.2376 97.6321C51.4652 96.7598 51.7828 95.9727 51.8397 95.1715C51.9014 94.3608 52.4371 94.1095 52.9776 93.7966C53.0771 93.7397 53.2668 93.7397 53.3616 93.8014C53.4991 93.882 53.4327 94.0621 53.3758 94.1806C53.0629 94.8349 52.8733 95.565 52.3802 96.1007C51.963 96.5464 52.0815 97.3666 51.2376 97.6321ZM129.521 93.4268C130.19 93.9151 130.863 94.503 130.854 95.1715C130.844 96.4137 131.157 97.5183 131.612 98.623C131.655 98.732 131.66 98.9027 131.404 98.9501C130.749 97.1533 129.796 95.4607 129.521 93.4268ZM21.1464 122.864C21.2033 120.83 21.5541 120 22.7962 119.142C22.5639 120 22.379 120.745 22.2273 121.498C22.0851 122.191 22.0804 122.816 21.1464 122.864ZM32.0649 89.781C32.0507 88.6953 32.4442 87.7423 32.7097 86.7562C32.8519 86.2299 32.9942 85.699 33.1506 85.1727C33.2312 84.8977 33.4303 84.7507 33.729 84.8124C33.985 84.8645 34.0182 85.0542 33.9329 85.2675C33.3166 86.7752 32.6908 88.2781 32.0649 89.781ZM78.1239 78.7012C77.6783 79.8296 77.6167 81.067 77.062 82.1669C77.0382 82.2143 77.0051 82.2712 76.9624 82.2996C76.7159 82.4798 76.4409 82.7548 76.1659 82.4087C75.9763 82.1669 75.9241 81.8919 76.2749 81.6264C76.6495 81.342 76.8391 80.8821 77.0904 80.4743C77.4507 79.8912 77.3227 79.0615 78.1239 78.7012ZM98.7995 70.2859C97.7044 70.2575 96.723 69.7644 95.6894 69.4799C95.1964 69.3424 94.618 69.5226 94.2102 69.0627C94.0917 68.93 93.9589 68.8162 94.0727 68.636C94.1676 68.4891 94.2956 68.5744 94.4378 68.5981C95.2485 68.7403 95.9691 69.1528 96.7893 69.3092C97.5052 69.4467 98.2259 69.7217 98.7995 70.2859ZM72.4726 70.8264C72.4205 72.4857 71.7141 73.7137 71.2163 74.9985C71.1357 75.2023 70.9792 75.4584 70.728 75.3209C70.5431 75.2213 70.6521 74.9653 70.7232 74.7804C71.0077 74.0835 71.2921 73.3865 71.5813 72.6896C71.8231 72.1159 71.9132 71.4712 72.4726 70.8264ZM65.821 94.0052C65.7262 93.7634 65.7783 93.6402 65.8637 93.5216C66.5084 92.6351 67.561 92.4217 68.4618 91.9618C68.6419 91.8718 68.7841 92.0045 68.86 92.1657C68.969 92.3933 68.8552 92.5165 68.6466 92.6208C67.7079 93.0712 66.7739 93.5359 65.821 94.0052ZM128.421 95.7404C127.886 94.9155 127.288 94.1806 126.672 93.4553C126.511 93.2656 126.364 92.9527 126.776 92.9006C127.212 92.8484 127.71 92.8437 127.924 93.3699C128.237 94.1285 128.056 94.9819 128.421 95.7404ZM55.9502 82.916C56.5002 82.6363 56.2394 81.9014 56.6282 81.5221C56.998 81.1571 57.401 81.6027 57.7802 81.7165C58.022 81.7924 58.022 82.1005 57.8798 82.2048C57.3962 82.5794 56.8842 82.9112 56.3627 83.2241C56.1967 83.3284 56.0403 83.2052 55.9502 82.916ZM101.156 83.85C100.786 83.9069 100.516 83.9827 100.246 83.9874C99.359 84.0064 98.4771 84.0112 97.5906 83.9969C97.3677 83.9922 97.1022 83.9068 97.126 83.6176C97.1544 83.1862 97.4057 83.5797 97.5432 83.537C98.4819 83.2241 99.4348 83.8879 100.369 83.5181C100.691 83.3853 100.895 83.4944 101.156 83.85ZM67.286 86.339C68.3053 86.5097 68.1014 87.6143 68.7083 88.0837C68.8078 88.1595 68.7699 88.3729 68.6514 88.463C68.476 88.5957 68.3006 88.4298 68.2057 88.3397C67.6605 87.804 67.1912 87.2208 67.286 86.339ZM113.364 64.4639C114.426 64.7389 115.284 65.1798 116.052 65.7819C115.075 65.5875 113.999 65.5923 113.364 64.4639ZM68.3006 6.28688C68.4191 7.79927 68.5376 9.30691 68.6561 10.8193C68.5518 10.8288 68.4475 10.8335 68.3432 10.843C68.4049 9.31165 67.964 7.82771 68.3006 6.28688ZM91.3941 87.7044C91.3419 87.7566 91.2945 87.8087 91.2423 87.8609C90.773 87.6333 90.3036 87.4105 89.8343 87.1782C89.6304 87.0786 89.3649 86.9553 89.4597 86.6993C89.5688 86.4054 89.8532 86.4907 90.1092 86.5523C90.7777 86.7135 90.9247 87.3678 91.3941 87.7044ZM123.661 48.3208C123.756 48.2307 123.851 48.1311 123.955 48.0458C124.463 47.657 125.017 47.3583 125.629 47.164C125.785 47.1118 125.951 46.9506 126.056 47.1402C126.198 47.3915 125.98 47.4816 125.781 47.5195C125.131 47.657 124.548 47.9083 124.121 48.4535C124.036 48.5673 123.875 48.5768 123.742 48.4867C123.709 48.4582 123.699 48.3919 123.661 48.3208ZM76.4741 92.6683C76.531 91.9855 76.5547 91.4024 76.64 90.8335C76.6685 90.6391 76.8249 90.3736 77.1094 90.4542C77.3654 90.5253 77.299 90.7813 77.2421 90.952C77.062 91.5067 77.1663 92.1847 76.4741 92.6683ZM85.1881 74.33C85.4251 74.1641 85.2876 73.5904 85.8044 73.6568C86.0462 73.6852 86.4918 73.7895 86.3828 74.0692C86.2595 74.3821 85.9324 74.7093 85.5341 74.7614C85.3682 74.7851 85.1691 74.6334 85.1881 74.33ZM34.0799 106.834C34.3122 107.318 33.748 107.546 33.7148 107.944C33.7053 108.096 33.5536 108.276 33.3687 108.233C33.2265 108.2 33.0605 108.072 32.9989 107.944C32.9183 107.783 32.8709 107.508 33.089 107.437C33.473 107.309 33.6342 106.863 34.0799 106.834ZM92.2949 63.3782C92.2474 64.3976 91.4747 64.6773 90.8346 65.104C90.773 65.0376 90.7066 64.9712 90.645 64.9048C91.1949 64.3976 91.7449 63.8903 92.2949 63.3782ZM94.6037 61.899C95.3101 61.5292 95.6325 60.856 96.3057 60.5668C95.9597 61.8753 95.9597 61.8753 94.6037 61.899ZM66.5322 43.191C66.4942 43.1815 66.4563 43.172 66.4184 43.1625C66.4184 42.7311 66.4041 42.2949 66.4231 41.8635C66.4373 41.5933 66.5985 41.3372 66.883 41.4178C67.1817 41.4984 67.0489 41.7355 66.9541 41.9583C66.7882 42.3518 66.6696 42.7785 66.5322 43.191ZM92.7974 66.1138C93.518 65.2083 93.518 65.2083 94.2908 66.0948C93.7978 66.2797 93.3331 66.2797 92.7974 66.1138ZM89.1563 66.678C89.2464 65.8388 90.0429 65.5591 90.5312 65.0234C90.4743 65.8815 89.4645 65.9905 89.1563 66.678ZM43.7136 99.685C43.908 99.3389 44.3442 99.2725 44.6523 99.0449C44.6666 99.0354 44.8609 99.2014 44.8467 99.2488C44.7377 99.647 44.4959 99.9268 44.055 99.9694C43.8843 99.9884 43.7279 99.9552 43.7136 99.685ZM60.4399 134.048C60.658 133.1 61.1084 132.455 61.6347 131.858C61.3407 132.578 61.2032 133.389 60.4399 134.048ZM103.043 65.2936C102.445 65.3505 101.857 65.3742 101.326 64.7579C102.066 64.6915 102.545 65.0186 103.043 65.2936ZM65.3564 143.198C64.6263 142.719 64.4508 141.951 64.9297 141.15C64.7969 141.951 65.1288 142.487 65.3564 143.198ZM121.566 98.7462C122.083 99.0165 122.196 99.5617 122.599 99.8983C122.751 100.026 122.751 100.278 122.519 100.377C122.339 100.453 122.234 100.334 122.163 100.145C121.988 99.6707 121.77 99.2109 121.566 98.7462ZM63.0807 165.889C63.4837 166.728 63.4647 166.998 62.9622 167.813C62.8768 167.107 63.204 166.51 63.0807 165.889Z" fill="black" fill-opacity="0.2"/>
<path d="M8.20355 137.604C8.1277 136.992 8.17511 136.821 7.4687 136.731C6.255 136.58 6.75755 137.623 6.28819 137.902C6.20285 137.954 6.31189 138.163 6.43042 138.253C6.57739 138.367 6.64374 138.211 6.67693 138.139C6.8002 137.855 7.23165 137.898 7.23639 137.367C7.24114 136.959 7.82901 137.186 8.20355 137.604Z" fill="black" fill-opacity="0.2"/>
</svg>
