<svg width="161" height="620" viewBox="0 0 161 620" fill="none" xmlns="http://www.w3.org/2000/svg">
<path d="M72.4031 5.84887C73.7003 4.81818 73.9164 2.93102 72.8857 1.63377C71.855 0.336527 69.9679 0.12044 68.6706 1.15113L72.4031 5.84887ZM60.5369 204L58.9536 206.548L60.5369 204ZM68.6706 1.15113C44.0931 20.6785 13.8456 54.3996 3.59195 92.1129C-1.5577 111.054 -1.68058 131.08 6.59007 150.753C14.8535 170.409 31.3682 189.409 58.9536 206.548L62.1201 201.452C35.3055 184.791 19.7869 166.662 12.1212 148.428C4.46264 130.211 4.51475 111.588 9.38177 93.6871C19.1615 57.7171 48.314 24.9882 72.4031 5.84887L68.6706 1.15113ZM58.9536 206.548C126.411 248.461 151.152 292.968 154.548 332.507C157.958 372.202 139.929 407.697 120.223 431.591L124.852 435.409C145.145 410.803 164.117 373.798 160.526 331.993C156.922 290.032 130.663 244.039 62.1201 201.452L58.9536 206.548ZM120.223 431.591C100.298 455.75 53.7476 511.079 35.4805 570.873C26.3252 600.842 24.1765 632.23 36.305 661.477C48.4496 690.763 74.6978 717.395 121.312 738.239L123.762 732.761C78.1265 712.355 53.2496 686.674 41.8473 659.179C30.429 631.645 32.3115 601.783 41.2187 572.627C59.0766 514.171 104.776 459.75 124.852 435.409L120.223 431.591Z" fill="url(#paint0_linear_1_3210)"/>
<defs>
<linearGradient id="paint0_linear_1_3210" x1="3" y1="369.5" x2="157.966" y2="369.5" gradientUnits="userSpaceOnUse">
<stop stop-color="#70E1F5"/>
<stop offset="1" stop-color="#FFD194"/>
</linearGradient>
</defs>
</svg>
